<?xml version="1.0" encoding="UTF-8" standalone="no"?><!DOCTYPE svg PUBLIC "-//W3C//DTD SVG 1.1//EN" "http://www.w3.org/Graphics/SVG/1.1/DTD/svg11.dtd"><svg width="100%" height="100%" viewBox="0 0 64 64" version="1.1" xmlns="http://www.w3.org/2000/svg" xmlns:xlink="http://www.w3.org/1999/xlink" xml:space="preserve" xmlns:serif="http://www.serif.com/" style="fill-rule:evenodd;clip-rule:evenodd;stroke-linejoin:round;stroke-miterlimit:2;"><path d="M8.616,50.246L12.014,29.347L22.101,39.37C22.715,39.981 23.67,40.088 24.405,39.629C24.914,39.311 25.759,39.16 26.703,39.023C28.519,38.76 30.664,38.694 32.235,38.611C34.775,38.476 40.371,39.784 40.371,39.784C40.984,39.924 41.627,39.746 42.081,39.31L52.089,29.689L55.381,50.25C49.95,57.196 41.493,61.665 32,61.665C22.505,61.665 14.047,57.195 8.616,50.246Z"/><path d="M58.406,45.522L55.212,25.574C55.102,24.888 54.62,24.32 53.962,24.099C53.303,23.879 52.576,24.042 52.075,24.524L40.207,35.932C38.313,35.544 34.194,34.768 32.037,34.882C30.37,34.971 28.095,35.049 26.168,35.328C25.316,35.451 24.524,35.623 23.845,35.84L12.07,24.139C11.573,23.646 10.843,23.472 10.177,23.688C9.512,23.904 9.023,24.474 8.911,25.164L5.599,45.532C3.513,41.474 2.335,36.873 2.335,32C2.335,15.628 15.628,2.335 32,2.335C48.372,2.335 61.665,15.628 61.665,32C61.665,36.869 60.489,41.466 58.406,45.522Z"/><g transform="matrix(0.083826,0,0,0.083826,-11.673542,-11.422062)"><path d="M521,142C728.52,142 897,310.48 897,518C897,725.52 728.52,894 521,894C313.48,894 145,725.52 145,518C145,310.48 313.48,142 521,142ZM836.008,679.312C860.856,630.928 874.882,576.089 874.882,518C874.882,322.687 716.313,164.118 521,164.118C325.687,164.118 167.118,322.687 167.118,518C167.118,576.136 181.167,631.016 206.052,679.429C216.288,699.342 228.357,718.161 242.037,735.662C306.829,818.556 407.736,871.882 521,871.882C634.243,871.882 735.134,818.576 799.927,735.708C813.648,718.16 825.75,699.286 836.008,679.312Z" style="fill:white;"/></g><g transform="matrix(-0.081171,0,-0,-0.081171,73.499092,81.999552)"><path d="M836.503,449.267L795.702,700.191C794.319,708.698 788.296,715.718 780.098,718.377C771.9,721.037 762.903,718.89 756.789,712.816L611.715,568.671C603.349,571.34 593.599,573.46 583.1,574.979C559.356,578.414 531.336,579.376 510.795,580.468C484.225,581.88 433.475,572.313 410.151,567.529L263.939,708.081C257.768,714.014 248.813,716.028 240.695,713.309C232.578,710.591 226.643,703.589 225.289,695.136L185.941,449.387C196.535,428.76 209.033,409.269 223.202,391.146L263.759,644.447L387.061,525.919C392.65,520.546 400.57,518.35 408.127,520.079C408.127,520.079 477.066,536.195 508.353,534.532C527.715,533.503 554.133,532.691 576.513,529.453C588.14,527.771 598.546,525.908 604.817,521.992C613.875,516.335 625.635,517.657 633.211,525.184L757.478,648.654L799.341,391.194C813.468,409.267 825.932,428.702 836.503,449.267Z"/><clipPath id="_clip1"><path d="M836.503,449.267L795.702,700.191C794.319,708.698 788.296,715.718 780.098,718.377C771.9,721.037 762.903,718.89 756.789,712.816L611.715,568.671C603.349,571.34 593.599,573.46 583.1,574.979C559.356,578.414 531.336,579.376 510.795,580.468C484.225,581.88 433.475,572.313 410.151,567.529L263.939,708.081C257.768,714.014 248.813,716.028 240.695,713.309C232.578,710.591 226.643,703.589 225.289,695.136L185.941,449.387C196.535,428.76 209.033,409.269 223.202,391.146L263.759,644.447L387.061,525.919C392.65,520.546 400.57,518.35 408.127,520.079C408.127,520.079 477.066,536.195 508.353,534.532C527.715,533.503 554.133,532.691 576.513,529.453C588.14,527.771 598.546,525.908 604.817,521.992C613.875,516.335 625.635,517.657 633.211,525.184L757.478,648.654L799.341,391.194C813.468,409.267 825.932,428.702 836.503,449.267Z"/></clipPath><g clip-path="url(#_clip1)"><g transform="matrix(-12.319619,-0,0,-12.319619,905.480811,1010.203247)"><path d="M58.406,45.522C57.546,47.197 56.532,48.779 55.381,50.25L52.089,29.689L42.081,39.31C41.627,39.746 40.984,39.924 40.371,39.784C40.371,39.784 34.775,38.476 32.235,38.611C30.664,38.694 28.519,38.76 26.703,39.023C25.759,39.16 24.914,39.311 24.405,39.629C23.67,40.088 22.715,39.981 22.101,39.37L12.014,29.347L8.616,50.246C7.469,48.779 6.457,47.201 5.599,45.532L8.911,25.164C9.023,24.474 9.512,23.904 10.177,23.688C10.843,23.472 11.573,23.646 12.07,24.139L23.845,35.84C24.524,35.623 25.316,35.451 26.168,35.328C28.095,35.049 30.37,34.971 32.037,34.882C34.194,34.768 38.313,35.544 40.207,35.932L52.075,24.524C52.576,24.042 53.303,23.879 53.962,24.099C54.62,24.32 55.102,24.888 55.212,25.574L58.406,45.522Z" style="fill:white;"/></g></g></g></svg>