<svg xmlns="http://www.w3.org/2000/svg">
<defs>
<font
       horiz-adv-x="997"
       id="PremiumUltra19">
      <font-face
         id="font-face1288"
         unicode-range="U+001D-266B"
         underline-position="-480"
         underline-thickness="160"
         bbox="-1762.54 -2198 8377 3116"
         cap-height="2129"
         x-height="945"
         descent="-615"
         ascent="2457"
         panose-1="0 0 4 0 0 0 0 0 0 0"
         units-per-em="3072"
         font-stretch="normal"
         font-weight="400"
         font-family="PremiumUltra19" />
      <missing-glyph
         id="missing-glyph1290"
         horiz-adv-x="2003" />
      <glyph
         id="glyph1292"
         horiz-adv-x="2003"
         glyph-name=".notdef" />
      <glyph
         id="glyph1294"
         horiz-adv-x="2003"
         glyph-name=".notdef" />
      <glyph
         id="glyph1296"
         horiz-adv-x="0"
         glyph-name=".null" />
      <glyph
         id="glyph1298"
         horiz-adv-x="613"
         glyph-name="nonmarkingreturn" />
      <glyph
         id="glyph1300"
         horiz-adv-x="1833"
         unicode=" "
         glyph-name="space" />
      <glyph
         id="glyph1302"
         d="M2755 3038q-109 -156 -228.5 -320.5t-242.5 -329.5t-245.5 -326t-237.5 -309.5t-218 -280.5t-187.5 -237.5t-146 -181.5t-92.5 -113 M642 140q-16 11 -18.5 20t2.5 15.5t16 10t22 3.5q10 0 18 -2.5t12.5 -8.5t3 -15.5t-11.5 -22.5 "
         horiz-adv-x="2183"
         unicode="!"
         glyph-name="exclam" />
      <glyph
         id="glyph1304"
         d="M809 2740q-10 -49 -20 -107.5t-19 -121t-17 -126.5t-14 -123q-15 -138 -27 -282 M1388 2816q-17 -49 -34.5 -116t-35 -143.5t-34.5 -158t-32 -159.5q-35 -182 -68 -381 "
         horiz-adv-x="725"
         unicode="&quot;"
         glyph-name="quotedbl" />
      <glyph
         id="glyph1306"
         d="M1236 1577q-66 -129 -141 -273t-152 -292t-153.5 -294t-146.5 -278q-164 -311 -328 -620 M2259 1764q-69 -113 -142.5 -242t-147.5 -263t-145.5 -267.5t-136.5 -255.5q-151 -286 -297 -575 M167 1030q336 46 609 80t495 59t398 41.5t317 27t253 16.5t206 9.5t175 5.5 t161 6 M90 322q391 75 790 134q170 25 358.5 49t381.5 42.5t383.5 30t365.5 11.5q90 0 174 -3 "
         horiz-adv-x="3075"
         unicode="#"
         glyph-name="numbersign" />
      <glyph
         id="glyph1308"
         d="M1641 2111q-146 -230 -284 -458t-265.5 -446t-242.5 -421t-214.5 -384t-183.5 -335t-148 -273 M2150 2124q-208 -268 -399.5 -560.5t-360 -604t-310.5 -638t-250 -662.5 M2304 1506q-31 53 -93 92t-146 65t-186 39t-215 13q-111 0 -228.5 -12.5t-233.5 -38t-227 -63 t-209 -88.5q-99 -51 -151.5 -100.5t-68 -98t2.5 -96t60 -93t103.5 -89t134 -85.5t151 -81.5t154.5 -77.5q76 -37 152.5 -75t144.5 -76t122.5 -75.5t87 -75t38.5 -74t-24 -72.5t-100 -70.5t-189 -67.5q-166 -46 -323 -69t-300 -23q-117 0 -221 15.5t-191 46t-154 77 t-111 107.5 "
         horiz-adv-x="2117"
         unicode="$"
         glyph-name="dollar" />
      <glyph
         id="glyph1310"
         d="M702 2156q-159 -100 -269.5 -196.5t-177.5 -183.5t-93.5 -160t-18.5 -126.5t47.5 -83.5t105.5 -30q22 0 46 3t51 11q68 18 118 61.5t85 102.5t55.5 129t28.5 140.5t5 137t-16 119.5t-34 87.5t-49 40.5q-4 1 -12 1q-28 0 -36 -30t6.5 -75.5t51.5 -98t98.5 -98t147 -75.5 t197.5 -30q34 0 70 3t75 10q109 20 204.5 46.5t177.5 57t150.5 62.5t123.5 63q128 72 220 151q-326 -300 -634 -646q-132 -147 -273 -319t-277.5 -362t-262.5 -393.5t-227 -414.5 M1468 782q-70 -68 -122.5 -138t-85.5 -134.5t-47 -121t-7.5 -98.5t33 -66t74.5 -24 q37 0 86 15.5t112 50.5q80 44 118.5 90.5t47 92t-7.5 89t-45 82.5q-67 91 -205 177 "
         horiz-adv-x="2125"
         unicode="%"
         glyph-name="percent" />
      <glyph
         id="glyph1312"
         d="M2865 206q-302 56 -576 153t-507 234.5t-418 314.5t-308 392q-77 135 -92 253t14.5 216.5t94 176t145.5 131t170 81.5t167 28q14 0 27.5 -1t26.5 -3q76 -11 116 -46t45.5 -86.5t-23 -116.5t-89.5 -137t-154 -147.5t-217 -148.5q-124 -72 -265 -143t-280 -142.5 t-265 -145.5t-219.5 -153.5t-143.5 -166.5t-37 -183q15 -112 86 -205t185.5 -159.5t268 -103.5t333.5 -37q106 0 217.5 13t229.5 42q130 31 233 84t180 119.5t130 143t83 155.5t39 156.5t-2 146.5t-40.5 125.5t-75.5 92.5q-1 -1 20 -13t62 -26t101.5 -25t136.5 -11 q83 0 182.5 18t214.5 66 "
         horiz-adv-x="3083"
         unicode="&amp;"
         glyph-name="ampersand" />
      <glyph
         id="glyph1314"
         d="M1165 2102q-40 -49 -83 -101t-86.5 -103.5t-85 -101t-78.5 -93.5q-88 -103 -172 -201 "
         horiz-adv-x="566"
         unicode="'"
         glyph-name="quotesingle" />
      <glyph
         id="glyph1316"
         d="M1073 2386q-166 -92 -297.5 -196t-233.5 -215.5t-175.5 -227.5t-122.5 -231.5t-76 -228.5t-35 -218.5t0.5 -200t29.5 -173.5q28 -104 88 -191.5t146 -158.5t194 -124t231 -89t259 -54t277 -18q131 0 263 15.5t262 47.5 "
         horiz-adv-x="2017"
         unicode="("
         glyph-name="parenleft" />
      <glyph
         id="glyph1318"
         d="M19 2395q56 6 115 6q107 0 220.5 -20.5t224 -66.5t212 -119.5t184 -179.5t141 -246.5t81.5 -320.5q26 -196 7.5 -361t-77.5 -302.5t-156 -249t-228 -201.5t-293.5 -159.5t-352.5 -123.5 "
         horiz-adv-x="1433"
         unicode=")"
         glyph-name="parenright" />
      <glyph
         id="glyph1320"
         d="M927 2766q-15 -189 -24 -372.5t-15 -343.5t-11 -287t-12 -202 M217 2719q94 -85 180 -152t170.5 -127t170.5 -117.5t180.5 -123t201 -145t231.5 -182.5 M1463 2498q-209 -91 -377.5 -172t-307 -159t-253.5 -155.5t-217 -161.5 M72 2332q85 -28 154 -51.5t135.5 -44.5 t135.5 -39.5t154 -37t191.5 -37.5t248 -40.5t324 -45t417.5 -52.5 "
         horiz-adv-x="2075"
         unicode="*"
         glyph-name="asterisk" />
      <glyph
         id="glyph1322"
         d="M724 1434q0 -132 -5.5 -262.5t-14.5 -255t-20 -239.5t-23 -215q-26 -234 -60 -444 M11 706q105 0 221.5 7.5t234.5 19.5t234 27t221 31q246 37 490 85 "
         horiz-adv-x="1758"
         unicode="+"
         glyph-name="plus" />
      <glyph
         id="glyph1324"
         d="M702 377q1 -73 -4.5 -142t-24 -135t-52.5 -130t-89.5 -128t-135.5 -129t-190 -133 "
         horiz-adv-x="1217"
         unicode=","
         glyph-name="comma" />
      <glyph
         id="glyph1326"
         d="M138 713q19 -1 38.5 -1.5t39.5 -0.5q94 0 193.5 8.5t193.5 21t178 26.5q146 24 284 55 "
         horiz-adv-x="1317"
         unicode="-"
         glyph-name="hyphen" />
      <glyph
         id="glyph1328"
         d="M138 713q19 -1 38.5 -1.5t39.5 -0.5q94 0 193.5 8.5t193.5 21t178 26.5q146 24 284 55 "
         horiz-adv-x="1317"
         unicode="‐"
         glyph-name="hyphen" />
      <glyph
         id="glyph1330"
         d="M683 66q-12 6 -12.5 12.5t4.5 12t13.5 9.5t15.5 4q9 0 11 -8.5t-14 -28.5 "
         horiz-adv-x="1264"
         unicode="."
         glyph-name="period" />
      <glyph
         id="glyph1332"
         d="M2300 2815q-295 -366 -570.5 -699t-517.5 -623t-443.5 -532t-349 -427t-233 -307t-95.5 -173 "
         horiz-adv-x="2200"
         unicode="/"
         glyph-name="slash" />
      <glyph
         id="glyph1334"
         d="M1165 2163q-125 -111 -248.5 -240.5t-236.5 -268.5t-211 -283.5t-173 -286t-122.5 -276t-59 -252.5t17.5 -215.5t106 -166.5q40 -35 92.5 -52t115.5 -17q106 0 233.5 43.5t262.5 119.5t269.5 180t254 225t215.5 254.5t154.5 268.5t71.5 266.5t-34 249.5 q-55 137 -122.5 228.5t-142.5 147.5t-155 79.5t-159 23.5q-77 0 -150.5 -18.5t-139 -48t-120 -65t-92.5 -70.5 "
         horiz-adv-x="2050"
         unicode="0"
         glyph-name="zero" />
      <glyph
         id="glyph1336"
         d="M1648 2120q-270 -338 -497.5 -645.5t-420.5 -572.5t-356 -481t-305 -370 "
         horiz-adv-x="1408"
         unicode="1"
         glyph-name="one" />
      <glyph
         id="glyph1338"
         d="M888 1365q136 112 272.5 197t265 142.5t244.5 86.5t211 29q69 0 125 -15.5t96 -46.5t62.5 -77.5t24.5 -109.5q2 -75 -14 -165t-53.5 -188.5t-97 -202.5t-143 -206t-192.5 -199.5t-245.5 -183.5t-302 -157t-362.5 -121q-102 -26 -186.5 -37.5t-155.5 -11.5q-116 0 -192 28 t-115.5 74t-44.5 105t19.5 120.5t77 120.5t128.5 105t173.5 74t212.5 28q8 0 15.5 -0.5t15.5 -0.5q147 -5 287 -31.5t272.5 -63.5t257 -78.5t240 -76.5t222 -58t203.5 -23q69 0 133 14.5t123 46.5 "
         horiz-adv-x="2700"
         unicode="2"
         glyph-name="two" />
      <glyph
         id="glyph1340"
         d="M843 1571q234 96 436.5 162t372.5 107.5t307 60t240 18.5q159 0 238.5 -36t79.5 -93q0 -43 -37 -104t-109 -128t-177.5 -135t-243 -126.5t-305.5 -102t-364 -61.5q0 1 35.5 15t93.5 30.5t131.5 30t149.5 13.5q74 0 144.5 -17.5t125 -62.5t87 -122t31.5 -196t-42 -220.5 t-111.5 -184.5t-166.5 -146.5t-206.5 -106.5t-231 -65t-240.5 -22q-127 0 -246.5 25t-222.5 76q-115 58 -204 132.5t-151 153.5t-95.5 155t-38 135.5t21.5 96t83 36.5q26 0 57 -8t69 -25 "
         horiz-adv-x="2517"
         unicode="3"
         glyph-name="three" />
      <glyph
         id="glyph1342"
         d="M1680 1938q-109 -148 -236.5 -269t-265.5 -222.5t-282 -188.5t-287 -167t-281.5 -158t-263.5 -161q2 0 27.5 14.5t70.5 36.5t107 47.5t137 47.5t161.5 36.5t179.5 14.5q109 0 224.5 -25t232.5 -88q126 -68 262 -94.5t270 -26.5q77 0 151.5 7t144 19t132.5 27t117 30 q126 37 236 83 M2478 1938q-92 -180 -208 -369.5t-245.5 -378t-267.5 -370t-274 -346t-265 -307t-240 -251.5 "
         horiz-adv-x="2625"
         unicode="4"
         glyph-name="four" />
      <glyph
         id="glyph1344"
         d="M2617 1709q-131 -50 -264 -83t-258.5 -52.5t-239 -27t-206.5 -7.5q-99 0 -167 6q-36 3 -67 3q-125 0 -173.5 -47.5t-29.5 -134.5 M1366 1506q-2 0 -38 -24t-95.5 -62.5t-137 -87.5t-163.5 -98.5t-174 -96t-169 -80.5q2 1 23 7t57 15.5t84 20t102 19t112.5 14.5t115.5 6 q53 0 102 -6t90.5 -20.5t74 -38.5t50.5 -60q33 -63 36.5 -142.5t-21.5 -165t-79 -172t-136 -163t-192.5 -138.5t-249.5 -98q-86 -23 -157.5 -33t-131.5 -10q-117 0 -191.5 35.5t-116 96t-54.5 141.5t-6 171q5 67 11 95t14 28q10 0 24 -25.5t36.5 -63t54 -82t75.5 -82 t102 -63t133 -25.5t16.5 1 "
         horiz-adv-x="2217"
         unicode="5"
         glyph-name="five" />
      <glyph
         id="glyph1346"
         d="M1434 1844q-33 -69 -65 -123.5t-67.5 -102.5t-77 -93t-93 -94.5t-115 -106.5t-143 -129.5t-177.5 -164t-218 -209.5q-166 -162 -249 -294.5t-85.5 -226t74 -144.5t230.5 -51q140 0 340.5 45t461.5 140q229 84 386.5 176.5t254.5 183t137.5 173t35 145t-53 99.5t-126.5 37 q-54 0 -120 -19t-142 -61q-120 -66 -235.5 -147.5t-218 -169t-187 -178t-143.5 -175.5t-87.5 -160t-19 -132.5t62.5 -93t157 -40.5 "
         horiz-adv-x="2250"
         unicode="6"
         glyph-name="six" />
      <glyph
         id="glyph1348"
         d="M623 1989q0 1 -19 -24.5t-51 -71t-75.5 -106.5t-91.5 -130.5t-99 -144t-99 -146.5q0 1 17 26.5t48 67t75 94.5t97 107.5t114 107t127 93t135.5 65t139.5 23.5q93 -1 187.5 -23t195.5 -48t209 -47.5t228 -21.5q122 0 256 30.5t286 109.5q0 -3 -40 -25t-113 -68.5 t-176 -119t-229 -175t-272.5 -237t-306.5 -305.5t-330 -380t-344 -461 "
         horiz-adv-x="2158"
         unicode="7"
         glyph-name="seven" />
      <glyph
         id="glyph1350"
         d="M1378 1481q26 118 -6 222.5t-107 185t-184.5 130.5t-237.5 60q-12 1 -23.5 1.5t-22.5 0.5q-113 0 -180.5 -46t-87.5 -134.5t8.5 -218.5t106.5 -298q41 -88 89.5 -179.5t95 -182.5t87.5 -180t67.5 -173t34.5 -161.5t-12 -145t-71 -123.5t-143 -97q-81 -36 -161 -53 t-156 -17q-90 0 -167.5 22t-132.5 63t-83.5 98t-19 127t61.5 151t156 169q134 113 290.5 215t321 200t330 196.5t317 203.5t281 219.5t223.5 246.5 "
         horiz-adv-x="1875"
         unicode="8"
         glyph-name="eight" />
      <glyph
         id="glyph1352"
         d="M1893 1880q24 119 12 212.5t-55 159t-115.5 100t-170.5 34.5q-136 0 -313 -70.5t-388 -223.5q-112 -81 -215.5 -170t-194 -179t-163.5 -178.5t-122.5 -168t-73 -147.5t-14.5 -118t54 -78t132 -28q52 0 118 10.5t150 33.5q219 60 408 136.5t344.5 156.5t276 157t203.5 137 t126.5 97t45.5 37q1 0 -26 -44t-79 -121.5t-128.5 -184.5t-174 -234t-215.5 -268.5t-253.5 -288t-287.5 -293.5t-317 -285 "
         horiz-adv-x="1933"
         unicode="9"
         glyph-name="nine" />
      <glyph
         id="glyph1354"
         d="M601 822q-22 6 -24.5 12.5t6.5 11.5t25 8t32 3q12 0 21 -2t13 -6.5t1 -12t-16 -18.5 M521 181q-22 6 -24.5 12.5t6.5 11.5t25 8t32 3q12 0 21 -2t13 -6.5t1 -12t-16 -18.5 "
         horiz-adv-x="1167"
         unicode=":"
         glyph-name="colon" />
      <glyph
         id="glyph1356"
         d="M1122 1184q-22 6 -24.5 12.5t6.5 11.5t25 8t32 3q12 0 21 -2t13 -6.5t1 -12t-16 -18.5 M710 380q-1 -89 -5.5 -163t-21.5 -136t-50.5 -115t-92.5 -99t-147.5 -87t-215.5 -81 "
         horiz-adv-x="1575"
         unicode=";"
         glyph-name="semicolon" />
      <glyph
         id="glyph1358"
         d="M1501 1429q-131 -121 -262 -230.5t-255.5 -206.5t-239.5 -180t-215 -152q-235 -160 -447 -283q430 -9 794 -43q103 -9 207.5 -21.5t204 -28.5t190 -35.5t166.5 -43t133.5 -52t90.5 -61.5 "
         horiz-adv-x="2133"
         unicode="&lt;"
         glyph-name="less" />
      <glyph
         id="glyph1360"
         d="M391 951q208 33 398 44.5t345 11.5q92 0 166.5 -2.5t128.5 -5.5q62 -4 111 -9 M101 435q208 34 403 50t363 16q169 0 296 -15t194 -42 "
         horiz-adv-x="1825"
         unicode="="
         glyph-name="equal" />
      <glyph
         id="glyph1362"
         d="M285 1226q44 -48 119.5 -87t169.5 -69.5t199.5 -54t209.5 -40t199 -28t168 -18t116.5 -9.5t44.5 -3t-45 -19t-125 -53.5t-183 -83.5t-220 -109.5t-236.5 -131t-230.5 -148t-204 -160.5t-156 -169 "
         horiz-adv-x="1758"
         unicode="&gt;"
         glyph-name="greater" />
      <glyph
         id="glyph1364"
         d="M652 295q-14 5 -14.5 11t6 11.5t17 9.5t19.5 4q11 0 13 -8t-15 -28 M676 2226q195 43 383 75.5t358 54.5t317 33t262 11q122 0 201 -12.5t103.5 -37.5t-10.5 -63.5t-142 -89.5q-104 -50 -218 -100.5t-229 -102.5t-226 -105.5t-209.5 -108t-179.5 -110.5t-136 -113.5 t-78.5 -117t-7.5 -121.5q16 -59 54.5 -102.5t92 -73.5t116.5 -48.5t127 -29t125 -14t110 -3.5q57 0 90 3q19 1 34 2 "
         horiz-adv-x="2608"
         unicode="?"
         glyph-name="question" />
      <glyph
         id="glyph1366"
         d="M1931 618q46 25 89.5 70t80.5 101t64.5 119.5t41 125.5t11 119t-25.5 100t-70 69t-121 26q-105 -4 -206 -41t-193.5 -98.5t-175 -144t-151.5 -178.5t-122.5 -201.5t-87.5 -212.5q-31 -98 -36.5 -167.5t11 -114t53 -65t88.5 -20.5q69 0 159.5 31t196.5 87 q90 47 165.5 113.5t132.5 139t93 144t46.5 130.5t-5.5 98t-63 45q-32 0 -65 -34.5t-61 -91t-48 -128.5t-26 -147.5t5.5 -147.5t46 -128.5t95.5 -91t155 -34.5q41 0 87.5 7t100.5 23q187 54 359.5 111.5t321.5 126t270 151t204.5 186.5t125.5 233.5t33 290.5 q-5 96 -47.5 186.5t-115 172.5t-171.5 155t-217 134t-252 109.5t-276.5 82.5t-289.5 52t-292 18q-137 0 -267.5 -17t-251.5 -52q-158 -47 -302.5 -133t-267.5 -201.5t-220 -255.5t-159.5 -295t-86 -320t1 -329.5t100.5 -324t213 -304.5q100 -106 215.5 -185t240 -136.5 t255.5 -95.5t262 -60.5t258.5 -31.5t244.5 -9q146 0 270.5 10t216.5 23q107 15 195 33 "
         horiz-adv-x="3867"
         unicode="@"
         glyph-name="at" />
      <glyph
         id="glyph1368"
         d="M2635 2034q-238 -405 -481 -710.5t-489.5 -528.5t-495.5 -372.5t-500 -242.5q-270 -101 -410 -101q-192 0 -142.5 194t346.5 594q101 137 215.5 275t236.5 272t250 261.5t256.5 242.5t255 215t246 179.5t230 136t207.5 83.5q68 20 128 29t114 9q124 0 199 -50.5 t87 -145.5t-45.5 -233t-198.5 -313q-171 -212 -316 -410.5t-260.5 -371.5t-198 -315t-127.5 -242q-28 -63 -35.5 -129.5t13.5 -122t74.5 -91t147.5 -35.5q56 0 127 14.5t158.5 47.5t193 85.5t229.5 127.5 "
         horiz-adv-x="2650"
         unicode="A"
         glyph-name="A" />
      <glyph
         id="glyph1370"
         d="M541 2146q-93 -229 -120 -398.5t8.5 -283t131 -172.5t246.5 -65q7 0 14 -0.5t14 -0.5q98 0 192.5 27t184 73.5t174 108.5t162 132.5t148 146t132.5 148.5q0 1 -36 -33.5t-99 -96.5t-150 -147.5t-189.5 -186t-215.5 -211.5t-229.5 -224.5t-232 -225t-221 -212t-198 -187 t-163.5 -149.5q-1 1 39 42t112.5 111.5t174 166.5t223.5 207t260 233t284 245t296 242t295.5 224.5t282 193t256.5 146.5q211 104 349 151.5t207 47.5q63 0 64.5 -37.5t-59.5 -105.5t-183.5 -163t-308.5 -211q-183 -114 -330 -181t-258.5 -101.5t-187.5 -44.5t-116 -10 q-11 0 -19 0.5t-14 1.5q-6 0 -11 1q46 13 98 23q45 9 103 16t121 7q56 0 112 -7.5t107 -27t93.5 -52t71 -82.5t40.5 -119.5t1 -161.5q-11 -96 -41 -186t-75.5 -169t-105 -144.5t-129 -112.5t-148 -73t-161.5 -26q-88 0 -180 31.5t-184.5 100.5t-182.5 178t-175 264 q0 2 -9 -19t-20 -58t-20.5 -86t-11 -104.5t9 -113.5t39.5 -112.5t80 -102t131 -81.5q39 -17 89 -24t110 -7q82 0 176.5 12.5t193 32.5t197.5 46t190 53q213 63 430 143 "
         horiz-adv-x="2400"
         unicode="B"
         glyph-name="B" />
      <glyph
         id="glyph1372"
         d="M1948 2026q-217 -168 -363 -313t-226 -252t-96.5 -168.5t25.5 -61.5q23 0 64 21t98 65t130.5 113t161.5 166q156 170 234 310.5t88.5 241t-40 155.5t-151.5 55q-59 0 -133.5 -20.5t-163 -63t-189 -108.5t-211.5 -158q-150 -124 -286.5 -262.5t-254 -283t-213.5 -289.5 t-164.5 -281t-106.5 -259t-40 -223.5t35.5 -173t119.5 -107.5q58 -25 128.5 -36t150.5 -11q95 0 198 13t208 34.5t207 49t195 55.5q217 67 430 152 "
         horiz-adv-x="1783"
         unicode="C"
         glyph-name="C" />
      <glyph
         id="glyph1374"
         d="M996 1674q-84 -212 -162 -384.5t-153 -315.5t-148 -261t-147 -223t-151 -201.5t-158 -194.5q1 3 23 32.5t59 76.5t85.5 106.5t103.5 121t112.5 120t111.5 104t102.5 73.5t85.5 28q36 0 57.5 -31.5t23.5 -106.5q2 -110 32.5 -203.5t87 -161t136 -105.5t179.5 -38 q69 0 147 20t163.5 63t178.5 109.5t192 160.5q161 153 282.5 318t199 335.5t109.5 343t14.5 340t-86 326.5t-193.5 303q-154 179 -290.5 261t-252.5 82q-83 0 -155.5 -39t-135 -112t-113.5 -178t-91 -237q-34 -113 -61.5 -242.5t-47 -267.5t-29.5 -279.5t-9.5 -277.5 t14 -262t40.5 -233t69 -191t101 -135q50 -43 108 -73t122.5 -49t133.5 -28t140 -9q109 0 218 18.5t208 49.5t182.5 72.5t140.5 86.5 "
         horiz-adv-x="2575"
         unicode="D"
         glyph-name="D" />
      <glyph
         id="glyph1376"
         d="M1828 2223q-17 -103 -42.5 -191t-51.5 -161t-51 -129t-42 -94t-23 -58t5 -20q15 0 71 40t168 124q89 66 147.5 134.5t89.5 132.5t33.5 120.5t-21 98.5t-73.5 66.5t-125 24.5t-174 -28t-223 -91q-122 -63 -231 -132t-196.5 -141t-149 -144t-88 -140t-14 -129.5t72 -112.5 t171.5 -89t284 -59q4 -2 -37 -6t-114 -17.5t-172 -40.5t-210.5 -75.5t-229.5 -123t-230 -181.5q-167 -161 -219.5 -289.5t-3.5 -221t191 -148.5t364 -73q33 -2 64.5 -3.5t63.5 -1.5q112 0 212.5 14t188.5 36.5t163 51.5t136 59q143 71 251 161 "
         horiz-adv-x="1783"
         unicode="E"
         glyph-name="E" />
      <glyph
         id="glyph1378"
         d="M1075 998q47 -23 115 -41q58 -16 145.5 -29t206.5 -13q88 0 193.5 9.5t229 33t265 63t300.5 99.5 M1133 1332q193 125 355.5 237t297 210.5t242 183t190.5 153.5q194 162 312 285q-146 -240 -310 -517q-70 -118 -150.5 -255t-168 -288t-180.5 -313t-188 -330 q-89 -158 -160.5 -274.5t-135 -193t-123 -114t-124.5 -37.5q-72 0 -157.5 45.5t-196.5 135t-253.5 220.5t-329.5 302 "
         horiz-adv-x="2308"
         unicode="F"
         glyph-name="F" />
      <glyph
         id="glyph1380"
         d="M26 -172q298 88 542.5 179t450 187t378 199.5t326.5 216t297 236.5t289 261q133 125 237 235t173 191.5t99 129t14 47.5q-10 0 -41.5 -22t-85 -70t-130.5 -123t-180 -182q-107 -111 -174.5 -197.5t-102 -152t-39 -111t15 -73.5t60.5 -41t96 -13q52 0 114 10t130 28 t138.5 42.5t138.5 52.5q118 50 267.5 119t316 156.5t342.5 193t347.5 227t331 259.5t292.5 290q106 121 191.5 223.5t144 177.5t86.5 117.5t18 42.5q-9 0 -50.5 -37t-121 -117.5t-199 -208.5t-284.5 -310t-312.5 -362t-281 -350t-256.5 -326.5t-239.5 -292t-229.5 -246.5 t-227 -190.5t-231.5 -122.5t-243.5 -43q-30 0 -61 3t-63 8q-143 25 -265 76t-217.5 113t-164 127.5t-105 119.5t-39.5 88.5t31 34.5q29 0 87.5 -30.5t148.5 -101.5q130 -103 246 -178t226 -124t217.5 -73t219.5 -24q102 0 211 19t231 55.5t259.5 90.5t296.5 124 "
         horiz-adv-x="3692"
         unicode="G"
         glyph-name="G" />
      <glyph
         id="glyph1382"
         d="M256 2163q-103 -220 -135.5 -394.5t4 -296t143 -186t280.5 -64.5q114 0 253 28q127 26 249.5 64t236.5 83.5t217.5 94.5t192.5 97q208 111 389 236q-415 -357 -789 -690q-106 -95 -216.5 -194t-219 -198.5t-212 -196t-197 -187t-174.5 -171.5t-143 -149 M3914 2626 q-137 -38 -250.5 -89t-215.5 -121.5t-201 -164t-207.5 -217t-234.5 -281t-282 -354.5q-94 -118 -164 -235t-122.5 -228t-90.5 -213.5t-68 -191t-55 -161.5t-51.5 -124.5t-57 -80t-72.5 -28.5t-97 30.5t-132 98.5q-132 117 -235.5 229.5t-171 201.5t-94.5 143.5t-8 54.5 q17 0 71.5 -48t152.5 -157q99 -111 204 -187t213 -122.5t218 -67t219 -20.5q137 0 268 26t255 67 "
         horiz-adv-x="2705"
         unicode="H"
         glyph-name="H" />
      <glyph
         id="glyph1384"
         d="M2317 481q-47 47 -74.5 109.5t-30.5 139.5t22 167.5t84 194t154 219t232 242.5q84 77 168.5 150t165.5 137t155 117t136.5 91.5t111 59.5t77.5 21q28 0 35.5 -21.5t-9.5 -68t-61 -120t-119 -177.5q-128 -178 -258.5 -362.5t-270.5 -360.5t-294.5 -337.5t-332 -292.5 t-382 -225.5t-444.5 -137.5q-75 -14 -142.5 -20t-130.5 -6q-179 0 -312.5 48.5t-233.5 132.5t-172.5 195.5t-129 237.5t-104 259t-97.5 260q2 0 20 -40t54.5 -106.5t91 -152.5t128.5 -178t168.5 -182.5t210.5 -166.5t254.5 -130.5t299.5 -73.5q56 -7 118 -10t131 -3 q145 0 310.5 12.5t335 34.5t335 51t311 62t263.5 68t192 68 "
         horiz-adv-x="3283"
         unicode="I"
         glyph-name="I" />
      <glyph
         id="glyph1386"
         d="M579 135q-72 48 -127 106t-83 136t-25.5 181.5t44.5 242.5t128 319t224 412q90 150 184 259t188 179.5t185.5 104t175.5 33.5q111 0 204 -55.5t157.5 -160t94.5 -254.5t15 -338q-13 -165 -24 -315.5t-26.5 -293t-38 -279.5t-59.5 -275.5t-91 -281.5t-132.5 -296.5 t-184 -322t-244.5 -357.5q-162 -220 -315 -381.5t-288 -267.5t-247.5 -157.5t-193.5 -51.5q-58 0 -97.5 26t-58 76.5t-14 125t35.5 172.5q49 156 159 327.5t269.5 347.5t365 352t446 342t511 317.5t561.5 278.5 "
         horiz-adv-x="2278"
         unicode="J"
         glyph-name="J" />
      <glyph
         id="glyph1388"
         d="M534 2453q-159 -234 -220 -426.5t-34.5 -335t135 -231t287.5 -115.5q33 -5 66.5 -7.5t67.5 -2.5q106 0 215.5 21t215 58t202.5 88.5t178 113t141 130.5t92 142q2 5 -1 5q-8 0 -47.5 -31t-104.5 -87t-151.5 -132.5t-187.5 -167t-213.5 -192t-229 -206.5t-233.5 -211 t-228 -205.5t-212.5 -189t-185.5 -162.5 M3862 2480q-171 -230 -351.5 -412t-365 -323t-369 -244.5t-361.5 -177t-344 -120t-317 -73t-279 -37t-230 -12.5q-79 -1 -119 11.5t-49.5 32t8.5 43t53.5 43.5t85.5 33.5t106 13.5q59 0 119.5 -19t112.5 -65t91 -123t55 -193 q23 -170 18 -331.5t-24.5 -310t-47.5 -281t-51 -244.5t-35 -202t1 -153t57 -96.5t132 -33.5q11 0 21.5 0.5t21.5 1.5 "
         horiz-adv-x="2183"
         unicode="K"
         glyph-name="K" />
      <glyph
         id="glyph1390"
         d="M1493 2762q-73 -84 -128.5 -186.5t-90.5 -213.5t-47 -224.5t2.5 -219.5t57 -199t117.5 -161.5t184 -108.5t256 -40q75 0 158.5 11t179.5 35q282 71 519.5 158.5t434.5 185.5t355 202.5t281 208t212.5 203.5t148.5 188q53 79 80 148t26.5 120.5t-30 81t-89.5 29.5 q-41 0 -97 -16t-127 -50t-158 -87.5t-191 -129.5q-101 -74 -222.5 -170t-256.5 -206.5t-281 -233t-297 -250t-304 -258t-302 -256.5t-291 -245t-271 -224t-242.5 -193.5t-204.5 -154.5q-121 -87 -233.5 -157.5t-208.5 -120t-171.5 -76.5t-122.5 -27q-42 0 -59.5 22.5t-4 71 t59.5 124t131 181.5q82 102 191.5 195t236.5 173t265.5 144.5t277.5 110.5t272.5 71t251.5 25q83 0 156 -13.5t131.5 -41.5t101 -71.5t64.5 -103.5q61 -168 76.5 -338t-4.5 -335t-70.5 -321t-121.5 -294 "
         horiz-adv-x="2792"
         unicode="L"
         glyph-name="L" />
      <glyph
         id="glyph1392"
         d="M446 2772q-144 -305 -214.5 -548t-61 -412t102.5 -259t277 -90q118 0 274 39q142 36 266.5 82t232 97t197.5 104.5t162 104.5q170 119 292 247q-166 -253 -399 -546q-99 -125 -222.5 -270.5t-271 -306.5t-319.5 -334.5t-367 -353.5q3 3 39 37.5t99.5 93.5t151 138.5 t192 171t223 191.5t244 200.5t255.5 197.5t257 182.5t248.5 155.5t230.5 117q186 80 313.5 117.5t206.5 37.5q87 0 120.5 -43.5t24 -124.5t-56.5 -197t-119 -262q-33 -67 -89 -149.5t-125 -171t-146.5 -179.5t-152.5 -176q-177 -198 -380 -406q251 269 519 521 q114 108 242.5 222.5t264 224.5t274 210t271.5 179q217 128 339.5 191t164.5 63q30 0 18.5 -34t-59.5 -101.5t-130.5 -168t-195.5 -234.5q-95 -112 -200.5 -237t-208 -254.5t-196 -258.5t-163.5 -250.5t-110 -231t-37 -198.5t56 -154t170 -98 "
         horiz-adv-x="3625"
         unicode="M"
         glyph-name="M" />
      <glyph
         id="glyph1394"
         d="M373 2446q-104 -124 -170 -262t-93.5 -274.5t-18 -265t56 -233t129 -178t199.5 -100.5q37 -8 75 -12.5t79 -4.5q115 0 239 31.5t250.5 87t252 131t242 165t220 188t187.5 199.5q0 -4 -32 -63.5t-88.5 -159.5t-134 -232t-169 -280.5t-193 -305.5t-206 -306.5t-208 -283 t-198.5 -236.5q-1 0 38 42t109.5 115.5t168 173.5t212 215t242 241t258.5 251.5t260.5 245t249.5 223.5q229 199 373.5 298.5t209.5 99.5q71 0 47 -122t-141 -373q-49 -105 -103.5 -220.5t-108 -232.5t-102 -231.5t-85 -218t-58 -191.5t-21.5 -152.5t26.5 -101t84.5 -36.5 q39 0 93 17.5t125.5 55t161.5 96t201 140.5 "
         horiz-adv-x="3033"
         unicode="N"
         glyph-name="N" />
      <glyph
         id="glyph1396"
         d="M1399 2163q-236 -146 -436 -314.5t-357.5 -345.5t-268.5 -356t-170 -347t-61.5 -317.5t57.5 -267.5q55 -108 170 -159t274 -51q121 0 261.5 28.5t292.5 84t310.5 135.5t316 183.5t309.5 229t289 270.5q148 156 233.5 306t120 289.5t25 266t-51 235.5t-108.5 198.5 t-147.5 154t-168 102.5t-169.5 44q-14 1 -27 1.5t-27 0.5q-107 0 -222 -32.5t-229 -98t-224.5 -164.5t-209 -231.5t-181 -299.5t-142.5 -369q-46 -155 -56 -308t14.5 -292.5t83.5 -259.5t152.5 -207.5t221 -137.5t287.5 -50q181 0 403.5 71t485.5 231 "
         horiz-adv-x="2450"
         unicode="O"
         glyph-name="O" />
      <glyph
         id="glyph1398"
         d="M1860 1854q-270 -287 -486 -549.5t-392 -491t-319.5 -419.5t-269.5 -336q0 1 44.5 56t124 149t190 219t243.5 266.5t283.5 292t309.5 294.5t323 274.5t323 231.5q287 183 476 269.5t283 86.5q116 0 94 -122t-177 -350q-91 -135 -176 -255.5t-169.5 -223t-171.5 -184.5 t-182.5 -139.5t-201.5 -88t-229 -30.5q-9 0 -18 0.5t-18 0.5q-129 5 -217.5 39.5t-145 88t-84.5 122t-35 141.5t3 145t29 133q0 -1 -7 -22.5t-23.5 -56t-45 -78t-71 -89t-101.5 -88.5t-137 -77t-177 -54.5t-222 -20.5q-47 0 -98 3q-109 8 -175.5 44t-101 90.5t-42.5 121.5 t1 136q20 161 118 361 "
         horiz-adv-x="2725"
         unicode="P"
         glyph-name="P" />
      <glyph
         id="glyph1400"
         d="M1584 1152q35 -124 43.5 -255t0.5 -268.5t-28 -281t-41 -292t-38.5 -301t-20.5 -308.5 M1499 -23q-149 3 -280.5 45t-237.5 121t-182 194t-113 265.5t-30.5 335t65.5 401.5q51 186 151.5 350.5t235 302t294 246.5t327.5 184.5t336.5 115.5t320.5 40q106 0 200 -20.5 t172 -62.5q137 -74 202.5 -179t66.5 -232t-59 -272.5t-174.5 -301.5t-279.5 -318t-374 -322q-225 -173 -450 -310t-434.5 -232.5t-396.5 -146t-336 -50.5q-117 0 -206 32t-145 100q-49 60 -60.5 149t13.5 199t85 237t153 264t219 279.5t281.5 283.5t341 276.5t397.5 257.5  "
         horiz-adv-x="2417"
         unicode="Q"
         glyph-name="Q" />
      <glyph
         id="glyph1402"
         d="M412 2111q-91 -151 -158 -292.5t-104.5 -265.5t-42.5 -226.5t28.5 -176.5t107.5 -114.5t195 -40.5q131 0 317 52q155 44 289 100t248 118.5t208 128t169 127.5q176 144 296 299q-299 -327 -589 -630q-82 -86 -169.5 -176t-176 -179.5t-177 -177t-173 -168t-163 -152.5 t-148.5 -131 M1569 1395q260 164 495 292.5t429 217t337.5 134.5t219.5 46q45 0 63.5 -16.5t8 -50.5t-52 -85.5t-117.5 -121.5q-160 -147 -313 -263.5t-299 -196.5t-285.5 -122.5t-272.5 -42.5q-155 0 -297 59q0 -4 21.5 -15.5t51 -35.5t61 -62t50.5 -97t19 -140t-32 -191 q-21 -73 -39.5 -147.5t-29 -144.5t-10.5 -131t15.5 -106.5t50 -72t92.5 -26.5q44 0 103.5 17t136.5 54.5t172 96t211 142.5 "
         horiz-adv-x="2358"
         unicode="R"
         glyph-name="R" />
      <glyph
         id="glyph1404"
         d="M23 -34q146 0 343.5 35t433 102.5t501 168t547 231t573 291.5t577.5 350t518.5 360t401 318.5t268.5 268.5t121.5 209.5t-40 141.5t-216.5 64q-8 1 -15 1q-90 0 -175.5 -39t-165 -108.5t-154 -164.5t-143 -206.5t-132 -235t-121.5 -249.5t-110 -251t-98.5 -239 t-88 -212.5t-76.5 -172.5q-46 -97 -98.5 -196.5t-110 -192t-120 -173.5t-129.5 -141t-139 -94.5t-147 -34.5q-66 0 -135 30t-141 96q-106 98 -187 193.5t-128 171.5t-54.5 123t33.5 47q21 0 54.5 -13.5t81.5 -42.5t110.5 -74.5t140.5 -110.5q50 -41 107.5 -70t120.5 -47 t130 -26t137 -8q98 0 198 14t197.5 36.5t189 51t172.5 58.5q190 70 367 160 "
         horiz-adv-x="3408"
         unicode="S"
         glyph-name="S" />
      <glyph
         id="glyph1406"
         d="M2066 1918q-89 -85 -180.5 -160.5t-180 -140.5t-172 -119.5t-157.5 -98.5q-173 -103 -333 -176q231 113 517 275q122 69 268 155t312 189.5t351 224.5t384 259q-1 0 -40 -44t-106 -122.5t-159 -186.5t-199 -237t-226 -273t-240 -294t-240 -301.5t-227.5 -295t-201.5 -274 t-163 -238.5 M103 875q45 -117 97.5 -221.5t117 -192t143 -157.5t174 -118.5t211 -74.5t254.5 -26q112 0 239.5 17.5t273.5 54.5t311 94t351 135 "
         horiz-adv-x="2275"
         unicode="T"
         glyph-name="T" />
      <glyph
         id="glyph1408"
         d="M1742 2678q-13 -116 -66.5 -249t-138 -276t-193.5 -293.5t-232.5 -301.5t-256 -299.5t-263.5 -288.5q-105 -112 -190 -218.5t-143.5 -200.5t-89 -172.5t-27.5 -135t42.5 -88t119.5 -31.5q58 0 138 17.5t185 55.5q215 77 413.5 183t394 239t395.5 293t417.5 346t459 397.5 t520.5 447.5q-1 -2 -43.5 -39.5t-113 -104t-163.5 -156.5t-197 -197t-212.5 -226t-210 -242t-189 -246.5t-150.5 -239.5q-74 -137 -113 -243.5t-35.5 -179t53 -110.5t152.5 -38q71 0 168.5 18.5t224 56t282.5 95t345 135.5 "
         horiz-adv-x="3025"
         unicode="U"
         glyph-name="U" />
      <glyph
         id="glyph1410"
         d="M137 2240q-33 -139 -44 -269t3 -244t54.5 -208.5t110 -162t170.5 -105t235 -37.5q39 0 80.5 3t86.5 10q170 26 313.5 73t268.5 113t236 149t216 180t207 207.5t209 230.5q0 -3 -27.5 -37t-76.5 -93.5t-117 -141.5t-148.5 -181t-171 -212.5t-184.5 -235.5t-189 -250 t-185 -257q-123 -175 -184.5 -305t-65.5 -215t47.5 -127t153.5 -42q96 0 233 35.5t314 104.5q221 87 428 205t396 258.5t357.5 299.5t313.5 327t264.5 341.5t210 343t150 330.5t84.5 305.5t13.5 267t-62.5 215.5 "
         horiz-adv-x="3125"
         unicode="V"
         glyph-name="V" />
      <glyph
         id="glyph1412"
         d="M146 1974q-24 -127 -32.5 -242.5t2 -215t42 -179.5t87 -137t136.5 -88t190 -31q49 0 103.5 6t115.5 20q157 35 296 74t268.5 89.5t253 114t248.5 146.5t255.5 188t274.5 238q-2 -5 -45.5 -51t-115.5 -123t-166.5 -180.5t-198.5 -224t-211.5 -253t-206.5 -267.5 q-95 -130 -165 -239t-105.5 -187.5t-32.5 -122t53 -43.5q56 0 175.5 59.5t314.5 189.5q137 92 263 188.5t238.5 192.5t210.5 187.5t180 172.5q191 192 344 375q-121 -155 -243 -342q-52 -79 -108.5 -174t-114.5 -201.5t-114 -224t-106 -243.5q-40 -99 -50 -168t3.5 -112 t48.5 -62.5t86 -19.5q52 0 118 17.5t140 48t153.5 71.5t159 87.5t156.5 97.5t146 100q138 99 283 224t288 266t280 292.5t258.5 304t223.5 301t175 282.5t112.5 249t37 201t-52 138t-155.5 60 "
         horiz-adv-x="4142"
         unicode="W"
         glyph-name="W" />
      <glyph
         id="glyph1414"
         d="M223 1785q-57 -85 -90 -162.5t-38 -136t20 -93t85 -34.5q39 0 93.5 16.5t125 52t159 92t194.5 136.5q271 203 453.5 338.5t293.5 216.5q130 95 206 149q-63 -80 -133 -230q-30 -64 -64 -149.5t-70.5 -196t-75 -246.5t-77.5 -302q-55 -238 -49.5 -431.5t74 -330.5 t199 -211t324.5 -74q151 0 338.5 47.5t416.5 149.5 M2798 2249q-79 -167 -194 -322.5t-252 -300.5t-289.5 -281.5t-307 -267t-305 -255.5t-283.5 -247t-226 -223.5t-152 -183t-86.5 -143.5t-30 -104.5t17.5 -67t56 -30.5 "
         horiz-adv-x="2608"
         unicode="X"
         glyph-name="X" />
      <glyph
         id="glyph1416"
         d="M1476 2415q-77 -144 -169.5 -293.5t-192 -299.5t-202.5 -297.5t-201.5 -288t-188 -271t-163 -246.5t-126.5 -214.5t-77.5 -175.5t-16.5 -129t56 -74q38 -18 95 -18q84 0 204 36.5t268.5 107t319.5 174t356.5 237t380 297t390 353.5t386.5 406t369 455q0 -4 -36 -58 l-101 -151.5t-155.5 -236t-200 -312t-234.5 -380t-258.5 -439t-272.5 -489t-276 -531.5q-140 -280 -279.5 -520t-272 -437t-254 -349.5t-225.5 -256.5t-187 -158t-137 -54q-51 0 -73.5 47.5t-12.5 147.5q10 102 62.5 222.5t138 253.5t200 274.5t248.5 285.5t283.5 286 t305.5 275t314 254.5t309 224t291 182.5t259 131 "
         horiz-adv-x="2400"
         unicode="Y"
         glyph-name="Y" />
      <glyph
         id="glyph1418"
         d="M161 270q357 206 650.5 376t535 309.5t437.5 252.5t358.5 204.5t298 165t256.5 134.5q143 72 254 109.5t179 37.5q53 0 75.5 -23t10 -69.5t-63.5 -117.5t-146 -168q-158 -160 -294 -278t-239 -197q-120 -92 -220 -156q133 117 278 208q62 39 132.5 76t146.5 66t155 46 t157 16q76 -1 119 -42.5t60 -112.5t11.5 -165.5t-25 -201t-50 -220t-64 -222t-66 -207t-56.5 -175.5q-44 -140 -110 -288.5t-147 -289.5t-174.5 -266.5t-191.5 -219.5t-198.5 -149t-196.5 -55q-48 0 -94.5 15.5t-91.5 49.5q-72 55 -91 127t6 156t90 177.5t160.5 191.5 t217.5 198t261.5 197t292 188.5t309 172t312.5 148.5t303 117 "
         horiz-adv-x="3708"
         unicode="Z"
         glyph-name="Z" />
      <glyph
         id="glyph1420"
         d="M1632 2081q-151 -60 -291 -102.5t-266.5 -69.5t-238.5 -39.5t-206 -12.5q-90 0 -162 10.5t-125 29.5q-1 -2 5.5 -48t11 -139t2 -236t-21.5 -340.5t-60 -450.5t-113 -567q1 0 43.5 12t113.5 29.5t165 38.5t198 38.5t213 29.5t210 12q70 0 134 -7t117.5 -22.5t94.5 -41.5 t65 -64 "
         horiz-adv-x="1775"
         unicode="["
         glyph-name="bracketleft" />
      <glyph
         id="glyph1422"
         d="M43 1381q102 -150 220.5 -282t245.5 -248.5t257.5 -220t255 -195.5t238.5 -175t208 -159 "
         horiz-adv-x="1758"
         unicode="\"
         glyph-name="backslash" />
      <glyph
         id="glyph1424"
         d="M34 1878q276 -30 545 -59q115 -12 240 -25t248.5 -25.5t241 -24t217.5 -20.5q2 -1 -4.5 -34t-17.5 -90.5t-25 -136.5t-28 -171t-26.5 -194t-19.5 -206t-8 -207t8 -197q10 -106 16.5 -176t-5 -111.5t-48.5 -58.5t-114 -17q-60 0 -148.5 8.5t-212 21.5t-286 29.5 t-370.5 32.5 "
         horiz-adv-x="1917"
         unicode="]"
         glyph-name="bracketright" />
      <glyph
         id="glyph1426"
         d="M997 386q-118 -65 -243 -125.5t-246 -112.5t-233.5 -93t-207.5 -67 "
         unicode="^"
         glyph-name="asciicircum" />
      <glyph
         id="glyph1428"
         d="M87 -357q348 53 678 89.5t641 59.5t603.5 33.5t565.5 10.5q274 0 524.5 -9t482.5 -25 "
         horiz-adv-x="3600"
         unicode="_"
         glyph-name="underscore" />
      <glyph
         id="glyph1430"
         unicode="`"
         glyph-name="grave" />
      <glyph
         id="glyph1432"
         d="M985 742q18 87 19 159.5t-15 125t-50.5 81.5t-87.5 29q-65 0 -157 -47t-216 -152q-163 -139 -273 -258.5t-167.5 -217t-62 -171.5t42.5 -121q32 -32 96 -32q54 0 126 23.5t156 69t177 113t189.5 156t192.5 197.5t186 237q-1 -4 -29.5 -41.5t-74.5 -102t-105.5 -154 t-124.5 -198.5q-38 -63 -53.5 -119t-9.5 -97.5t33.5 -65.5t75.5 -24q69 0 181 58.5t265 195.5 "
         horiz-adv-x="1299"
         unicode="a"
         glyph-name="a" />
      <glyph
         id="glyph1434"
         d="M558 1142q214 83 395 181t328 201t261 206.5t195 199t128.5 178.5t61.5 144.5t-4.5 96.5t-69.5 35q-31 0 -73.5 -14t-97.5 -44q-77 -42 -174.5 -124.5t-206.5 -192t-225.5 -240t-232.5 -269t-227 -278.5t-209 -268.5t-179 -239t-137 -190.5q-72 -103 -118 -183 t-62.5 -134.5t-0.5 -83t70 -28.5q57 0 158.5 33.5t256.5 103.5q139 63 244.5 123.5t182 118t126.5 112t77.5 106t36 99.5t2.5 93q-5 36 -17.5 53t-28.5 17q-21 0 -41.5 -29.5t-26.5 -83t8.5 -128t62.5 -164.5q33 -61 81.5 -101.5t106 -64.5t120 -34t123.5 -10 q84 0 156.5 14.5t114.5 32.5 "
         horiz-adv-x="1723"
         unicode="b"
         glyph-name="b" />
      <glyph
         id="glyph1436"
         d="M706 478q39 124 48.5 224.5t-6.5 171t-55 109t-97 38.5q-62 0 -142 -46.5t-175 -148.5q-82 -88 -144.5 -176.5t-100.5 -170.5t-47.5 -153.5t14.5 -124t85 -83t164 -30.5q32 0 68 3t78 10q218 35 381 84t272 94q128 52 218 107 "
         horiz-adv-x="1267"
         unicode="c"
         glyph-name="c" />
      <glyph
         id="glyph1438"
         d="M917 449q57 139 83 256t19.5 202.5t-45 133.5t-110.5 48q-79 0 -201 -66t-286 -214q-121 -108 -215 -215.5t-159.5 -205.5t-100.5 -182t-37.5 -146t29 -97t98.5 -35q55 0 133.5 25t183.5 81q82 44 169.5 109.5t177.5 147.5t181 177t180 197t174.5 208.5t165.5 210.5 q280 366 555 789q-180 -275 -345 -531q-70 -109 -143.5 -225.5t-142 -228t-128.5 -212.5t-104 -180q-49 -89 -76 -159.5t-27.5 -119t28 -74.5t89.5 -26q47 0 115 16t158 49t203.5 83.5t252.5 120.5 "
         horiz-adv-x="1792"
         unicode="d"
         glyph-name="d" />
      <glyph
         id="glyph1440"
         d="M0 386q7 -1 13.5 -1q75 0 167.5 29.5t191 78.5t197.5 112.5t186 132.5t156.5 138.5t109.5 129.5t44.5 106t-37.5 68q-35 19 -84 19q-67 0 -151.5 -33t-174.5 -87t-179.5 -124.5t-168 -145.5t-140 -148.5t-94.5 -135.5q-46 -85 -47 -153.5t38.5 -117.5t117 -75.5 t189.5 -26.5q155 0 371 55.5t481 178.5 "
         horiz-adv-x="1201"
         unicode="e"
         glyph-name="e" />
      <glyph
         id="glyph1442"
         d="M1545 2117q-384 -430 -751 -841q-104 -117 -214 -240t-221.5 -247.5t-221.5 -247.5t-214.5 -239.5t-200.5 -223.5t-179 -200q-148 -165 -263 -312.5t-196 -273.5t-126.5 -227t-53 -172.5t24 -109.5t104.5 -38q43 0 101 14t132 44q170 69 304.5 161t235.5 198t170 222 t109 232.5t52.5 229.5t0 214t-48.5 184.5t-93 141.5q0 -1 15 -14.5t44 -33t71.5 -42.5t98.5 -42t124.5 -32t149.5 -13q62 0 130 9t142.5 30t156 55t168.5 84 "
         horiz-adv-x="1094"
         unicode="f"
         glyph-name="f" />
      <glyph
         id="glyph1444"
         d="M700 323q110 86 197 177t147.5 177.5t94 163.5t36 134.5t-27 91.5t-94.5 34q-51 0 -123.5 -23t-169.5 -74q-101 -53 -203 -121.5t-196 -144t-177 -154.5t-147 -153.5t-104.5 -140t-50 -114.5t16.5 -77.5t94 -28.5q43 0 104 12.5t142 39.5q150 50 276.5 104.5t232 110 t190 110t150.5 103.5q154 115 251 229q-157 -277 -353 -579q-83 -129 -183 -276.5t-213.5 -305t-240 -322t-263.5 -326.5q-128 -152 -248 -260t-227 -177t-197.5 -101t-158.5 -32q-78 0 -122 39t-44.5 110.5t47 172t152.5 222.5q98 114 226 230.5t274.5 230t305 222 t317 207.5t311 186.5t287.5 158.5t245.5 124t185.5 83 "
         horiz-adv-x="1440"
         unicode="g"
         glyph-name="g" />
      <glyph
         id="glyph1446"
         d="M0 386q384 191 694.5 377.5t546 357.5t394.5 320.5t240 266t83 194.5t-78 106q-24 8 -47 8q-63 0 -140.5 -47t-171.5 -132t-204.5 -202.5t-239 -259t-275.5 -301.5t-313 -329t-352.5 -342.5t-393.5 -342.5q1 -2 36 23t95.5 69.5t142.5 104.5t178 128t201 140.5t212.5 142 t212.5 132t200 110.5q112 57 180.5 82.5t102.5 25.5q41 0 36 -33.5t-42.5 -92t-101 -137.5t-140.5 -171q-72 -85 -122 -153.5t-68 -116t2.5 -73t90.5 -25.5q86 0 256 41t444 129 "
         horiz-adv-x="1659"
         unicode="h"
         glyph-name="h" />
      <glyph
         id="glyph1448"
         d="M555 910q-226 -183 -375.5 -332.5t-216.5 -255.5t-50.5 -164t121.5 -58q62 0 162 23q167 40 310 85.5t250 85.5q124 46 228 92 M1762 1977q-14 8 -18 14t-1.5 9.5t10.5 5.5t17 2q10 0 19.5 -2t15 -6.5t4 -11.5t-13.5 -16 "
         horiz-adv-x="984"
         unicode="i"
         glyph-name="i" />
      <glyph
         id="glyph1450"
         d="M1121 2226q-14 8 -18 14t-1.5 9.5t10.5 5.5t17 2q10 0 19.5 -2t15 -6.5t4 -11.5t-13.5 -16 M675 1522q-129 -175 -236.5 -345t-201 -337t-176 -333t-161 -334.5t-157.5 -340t-165 -349t-182.5 -363.5t-210.5 -382q-121 -207 -231 -356.5t-205 -246.5t-172.5 -143 t-131.5 -46q-48 0 -76 35.5t-32 103t18 165t74 222.5q55 132 153 266.5t227 268.5t281.5 265.5t315.5 257.5t330 245t325 227.5t300 205t255 178.5 "
         horiz-adv-x="616"
         unicode="j"
         glyph-name="j" />
      <glyph
         id="glyph1452"
         d="M575 1159q157 120 290.5 244t240.5 241t186 220t128 180.5t66 122t-1 44.5q-20 0 -88 -67.5t-187 -220.5q-72 -92 -151 -193t-162 -207.5t-168.5 -215.5t-170.5 -217t-167.5 -213.5t-160.5 -203.5q-273 -346 -549 -695q200 231 407 440q88 89 186.5 181.5t200.5 179 t203.5 160.5t196.5 125q128 69 212 99t133 30t65 -26t6.5 -68.5t-42.5 -98.5t-82 -116q-45 -55 -98.5 -97.5t-109 -71t-112 -43.5t-107.5 -15q-65 0 -117 24t-82 74q-2 2 -5 -19t-3 -57.5t4.5 -84.5t19 -100.5t39.5 -105t66.5 -98t100 -80.5t139.5 -52q40 -8 80 -12t79 -4 q69 0 135.5 10.5t128 27.5t117 39t102.5 45q112 54 207 122 "
         horiz-adv-x="1751"
         unicode="k"
         glyph-name="k" />
      <glyph
         id="glyph1454"
         d="M0 386q471 242 821.5 479t593 456t383 413.5t191.5 351.5q23 72 27.5 124t-6.5 86.5t-37.5 51t-64.5 16.5q-45 0 -105.5 -22.5t-131.5 -65.5t-150.5 -105.5t-162.5 -142.5q-58 -56 -138 -134.5t-173 -172.5t-194.5 -200.5t-203 -218.5t-197.5 -227t-179 -225.5 t-148 -214.5t-102.5 -193.5t-44.5 -162t27 -121.5q29 -43 85 -61.5t130 -18.5q68 0 147.5 14t163 37.5t166.5 54.5t159 65t141 69.5t111 67.5 "
         horiz-adv-x="1108"
         unicode="l"
         glyph-name="l" />
      <glyph
         id="glyph1456"
         d="M0 386q278 218 483.5 324t317.5 106q70 0 99 -40.5t12 -120.5q-8 -37 -39 -84.5t-77 -100t-102 -107.5t-113 -107q-134 -121 -299 -251q124 114 273 239q64 53 139 113.5t159.5 125t176.5 131t190 132.5q178 120 322 177.5t238 57.5q56 0 90 -20.5t41.5 -61t-13 -101 t-73.5 -139.5q-38 -57 -82 -111t-89.5 -104.5t-91.5 -95.5t-88 -83q-99 -90 -199 -167q139 107 284 214q62 46 130.5 96.5t140 102t143 101t138.5 94.5q75 50 147 95.5t131 80t101 55t58 20.5q13 0 7 -14.5t-34.5 -46t-81.5 -82t-136 -122.5q-170 -149 -260.5 -250 t-114.5 -163t11.5 -89t116.5 -27q57 0 122.5 9t134.5 25t139 37t136 46t126 52t109 54 "
         horiz-adv-x="2823"
         unicode="m"
         glyph-name="m" />
      <glyph
         id="glyph1458"
         d="M0 386q275 208 457.5 310.5t268.5 102.5q66 0 71 -62t-55 -187q-28 -58 -63 -114t-73.5 -108t-77.5 -99t-76 -87q-86 -94 -177 -175q139 119 290 238q64 51 136.5 107t150 112.5t157 112t157.5 104.5q147 94 239.5 144.5t127.5 50.5q40 0 1.5 -72.5t-162.5 -231.5 q-69 -89 -107.5 -162t-44.5 -125.5t21.5 -81.5t90.5 -29q86 0 239 59.5t379 192.5 "
         horiz-adv-x="1950"
         unicode="n"
         glyph-name="n" />
      <glyph
         id="glyph1460"
         d="M321 662q-111 -69 -193 -142.5t-134 -142.5t-74 -131t-13 -108t49 -73t111 -27q26 0 56 4t65 12q106 26 218 85.5t213.5 141t182.5 178.5t125 196t42 193.5t-67 172.5q-35 41 -74.5 59.5t-82.5 18.5q-50 0 -101.5 -22.5t-98.5 -61t-88 -89.5t-71 -108.5t-45.5 -117.5 t-11.5 -116t29 -105t77 -84q63 -42 155.5 -58.5t195.5 -16.5q97 0 191.5 10.5t170.5 22.5q88 15 169 33 "
         horiz-adv-x="1317"
         unicode="o"
         glyph-name="o" />
      <glyph
         id="glyph1462"
         d="M785 1139q-180 -132 -350.5 -293.5t-326 -335.5t-294 -352.5t-255.5 -344.5q-275 -390 -505 -798q186 322 407 634q94 133 205 276.5t235.5 284.5t259.5 273.5t277 243.5q215 168 359 242t226 74q68 0 98 -43t28.5 -118t-31 -176t-82.5 -217q-45 -98 -107.5 -171.5 t-134.5 -123t-149 -74.5t-151 -25q-66 0 -126 20t-108 60t-80.5 101t-44.5 142q3 0 5.5 -24t14 -59.5t36 -77.5t71.5 -77.5t120.5 -59.5t182.5 -24q55 0 119.5 7t140.5 23q178 38 318 83t240 84q116 46 205 93 "
         horiz-adv-x="1588"
         unicode="p"
         glyph-name="p" />
      <glyph
         id="glyph1464"
         d="M927 753q18 54 24 102t-3 85t-34.5 58.5t-70.5 21.5q-34 0 -79.5 -14t-104.5 -44t-131.5 -78.5t-160.5 -117.5q-175 -137 -278.5 -261.5t-142.5 -219t-16.5 -150t100.5 -55.5q69 0 176 49q75 35 147 73.5t139 77.5t127.5 77.5t112.5 72.5q122 82 227 162 q-100 -146 -255 -335q-66 -80 -150.5 -178t-189 -211.5t-229.5 -242t-272 -269.5q-235 -227 -394 -396.5t-231.5 -282t-53.5 -168t140 -55.5q60 0 144.5 13.5t196.5 39.5q113 27 228 77t225 118.5t211.5 152.5t189 179.5t156.5 199t114.5 211.5t63 217.5t1.5 215.5 t-69 206.5t-150 190.5q0 2 16 -2.5t48 -10t80.5 -10.5t114.5 -5q61 0 136.5 6t166.5 22t197.5 42.5t228.5 68.5 "
         horiz-adv-x="1623"
         unicode="q"
         glyph-name="q" />
      <glyph
         id="glyph1466"
         d="M0 386q187 152 329.5 270t247.5 207.5t176 154.5t114 110.5t62 75.5t19.5 50t-13.5 33.5t-36 26.5q-10 6 -22 6q-24 0 -53 -20.5t-55.5 -54.5t-47.5 -79t-30 -94.5t-2.5 -99.5t35 -95t82.5 -81t140 -57q-3 0 -31 -20t-75 -64.5t-112.5 -115t-143.5 -172.5 q-46 -59 -71 -108t-26 -83.5t25 -53.5t83 -19q50 0 124.5 16t177.5 50t235.5 88t297.5 129 "
         horiz-adv-x="1430"
         unicode="r"
         glyph-name="r" />
      <glyph
         id="glyph1468"
         d="M0 386q168 73 297.5 139t233 129.5t185.5 126.5t154 131t139.5 143t141.5 162q-2 -2 -28.5 -33t-68 -83.5t-91.5 -123t-99 -151.5t-90.5 -168.5t-65.5 -174.5q-24 -86 -57 -165t-74 -139t-89 -96t-101 -36q-55 0 -113.5 44.5t-119.5 146.5q-32 54 -46 76.5t-10 22.5 q3 0 22.5 -17.5t54.5 -43.5t84.5 -56t113.5 -56t141 -43.5t167 -17.5q74 0 155 14t170.5 47t186 87.5t199.5 134.5 "
         horiz-adv-x="1392"
         unicode="s"
         glyph-name="s" />
      <glyph
         id="glyph1470"
         d="M142 1107q32 -2 65 -3t65 -1q158 0 321.5 20t340 44t368 44t404.5 20q78 0 157.5 -3t164.5 -11 M1300 1661q-178 -191 -353 -356.5t-331 -307.5t-287 -261.5t-221.5 -219.5t-133.5 -182t-25 -149q17 -61 90 -93.5t197 -32.5q90 0 204.5 19t250.5 58.5t292 101.5t328 148  "
         horiz-adv-x="1311"
         unicode="t"
         glyph-name="t" />
      <glyph
         id="glyph1472"
         d="M502 1017q-224 -240 -357.5 -416t-187.5 -291.5t-33.5 -171.5t104.5 -56q48 0 115 18.5t153 53.5q96 40 190.5 91t183.5 107t171.5 114t153.5 112q168 129 318 265q-229 -197 -364 -359q-38 -46 -70.5 -92.5t-53.5 -89.5t-29 -82t2.5 -70t42 -53t88.5 -32q24 -4 47.5 -6 t47.5 -2q67 0 132 14t125 37.5t115 53t101 60.5q110 72 205 164 "
         horiz-adv-x="1702"
         unicode="u"
         glyph-name="u" />
      <glyph
         id="glyph1474"
         d="M742 1195q-308 -307 -503 -522t-285 -350t-80 -196.5t112 -61.5q32 0 72.5 5.5t89.5 16.5q171 38 330.5 100.5t299 146t254.5 186.5t195 221q49 72 69 129t20 96t-16 59.5t-39 20.5q-29 0 -61.5 -34.5t-50.5 -109.5q-23 -95 3.5 -187.5t96 -165.5t178 -118t248.5 -45  "
         horiz-adv-x="1675"
         unicode="v"
         glyph-name="v" />
      <glyph
         id="glyph1476"
         d="M628 999q-266 -231 -440.5 -408t-258 -297t-77 -182t103.5 -62q100 0 290 66q118 41 230.5 99.5t216.5 126.5t197.5 141.5t173.5 143.5q187 165 346 348q-205 -233 -326 -416q-35 -52 -64.5 -103.5t-49 -97.5t-27.5 -85.5t0.5 -68.5t35.5 -45.5t76 -16.5q21 0 46 3 q93 12 183 48t172.5 87t155 112.5t132 124t102.5 122.5t66 107.5t24 78t-24 34.5q-3 1 -9 1q-24 0 -47.5 -20.5t-41 -54t-25.5 -76.5t-1.5 -87.5t31.5 -87.5t74 -76.5t125 -54t185 -20.5q36 0 76 3 "
         horiz-adv-x="2279"
         unicode="w"
         glyph-name="w" />
      <glyph
         id="glyph1478"
         d="M1709 1608q-390 -386 -747 -745q-101 -102 -206.5 -208.5t-210 -213t-205 -210.5t-192.5 -200t-172.5 -182.5t-144.5 -157.5 M473 1101q-145 -179 -249.5 -317t-161.5 -241t-64 -173.5t42.5 -114t158.5 -62.5t284 -19q85 0 167 9t157.5 24t144.5 34t127 39 q137 47 255 106 "
         horiz-adv-x="1334"
         unicode="x"
         glyph-name="x" />
      <glyph
         id="glyph1480"
         d="M509 946q-231 -228 -377.5 -396t-211 -278t-48 -163.5t111.5 -53.5q54 0 131.5 17t180.5 50q155 50 279 102.5t229 112t197.5 127.5t183.5 149.5t186.5 178t207.5 212.5q-2 -2 -34.5 -62.5t-94.5 -171.5t-152.5 -267t-208 -349t-261.5 -418.5t-314 -474.5 q-136 -201 -254 -343.5t-213.5 -233.5t-168 -133.5t-117.5 -42.5q-39 0 -57.5 29t-14.5 83.5t32 132t82 174.5q58 105 145 215t195.5 220.5t233.5 219t259.5 210t274 193t276 168.5t266 136.5t243.5 96.5 "
         horiz-adv-x="1696"
         unicode="y"
         glyph-name="y" />
      <glyph
         id="glyph1482"
         d="M0 386q196 130 365 233.5t302.5 176t227.5 111t142 38.5q56 0 41.5 -56.5t-112.5 -178.5q-52 -65 -110.5 -124t-119 -111.5t-120.5 -98t-115 -83.5q-127 -89 -255 -158q204 116 391 208q80 39 164 76t162.5 66t147.5 47t120 18q38 0 63 -11t34 -37q14 -41 5 -123.5 t-39 -193.5t-79.5 -244.5t-117 -277t-151 -289.5t-181.5 -282t-208 -255.5t-231 -209.5q-140 -105 -241.5 -152t-166.5 -47q-53 0 -81 29.5t-30.5 83t20.5 128.5t71 166.5t122 197.5t173 220q105 121 223.5 233.5t241 215t244 193t232.5 166.5q261 178 523 325 "
         horiz-adv-x="1657"
         unicode="z"
         glyph-name="z" />
      <glyph
         id="glyph1484"
         d="M1800 2397q-59 4 -118 5.5t-119 1.5q-137 0 -274.5 -10t-265.5 -31t-243 -53t-208 -76.5t-160 -101.5t-99 -127t-25.5 -154.5t60.5 -183.5q80 -146 130.5 -248.5t67.5 -172t-0.5 -111.5t-72 -69t-148 -44.5t-228.5 -36.5q1 0 30.5 -2.5t74 -10t96.5 -23t97.5 -40.5 t78.5 -62.5t38.5 -90t-22.5 -122t-104 -158.5q-115 -136 -121.5 -250t81.5 -197t263 -129.5t422 -46.5q157 0 338.5 20t387.5 63 "
         horiz-adv-x="1975"
         unicode="{"
         glyph-name="braceleft" />
      <glyph
         id="glyph1486"
         unicode="|"
         glyph-name="bar" />
      <glyph
         id="glyph1488"
         d="M264 2343q78 28 147 41t131 13q86 0 154.5 -23.5t117 -65.5t76 -100.5t31 -128.5t-17.5 -149t-70 -162q-60 -103 -123.5 -190.5t-111.5 -163.5t-71 -142.5t-3 -127.5t92.5 -118.5t216.5 -115.5q2 -2 -20 -5t-55 -10t-72 -20.5t-72.5 -36.5t-55 -56.5t-20.5 -81t31.5 -111 t101.5 -145.5q68 -79 87.5 -145.5t3 -121.5t-63 -98t-110 -76.5t-137 -57t-144.5 -38.5t-132.5 -22t-101.5 -7q-5 0 -10 0.5t-10 0.5 "
         horiz-adv-x="1283"
         unicode="}"
         glyph-name="braceright" />
      <glyph
         id="glyph1490"
         horiz-adv-x="1833"
         unicode="~"
         glyph-name="asciitilde" />
      <glyph
         id="glyph1492"
         d="M1931 1996q-22 81 -80.5 124t-146.5 43q-63 0 -139 -24.5t-160.5 -76t-175.5 -132t-186 -192.5q-90 -106 -148 -203.5t-98 -192t-68.5 -189.5t-59.5 -196.5t-71.5 -213t-103.5 -239t-156 -274.5t-229 -320q2 0 24 29.5t59.5 78.5t89 112t113.5 129.5t132.5 131t146 117 t154 87.5t157.5 42q29 3 56 3q90 0 164 -25t133 -66.5t103 -95t74.5 -110.5t47.5 -112.5t21 -101.5 M64 927q153 72 288.5 122.5t255 83t222.5 47t191 14.5q108 0 193 -19.5t151 -54.5 "
         horiz-adv-x="2058"
         unicode="£"
         glyph-name="sterling" />
      <glyph
         id="glyph1494"
         d="M648 786q-37 -8 -65 -8q-49 0 -84.5 17.5t-55.5 44t-23.5 57.5t10.5 57.5t47 44t86 17.5t19.5 -2q60 -7 92 -29t43 -51t4.5 -61t-25 -59t-45.5 -44.5t-57 -17.5q-35 0 -68.5 31t-55.5 108 "
         horiz-adv-x="1408"
         unicode="•"
         glyph-name="bullet" />
      <glyph
         id="glyph1496"
         d="M58 822q220 16 434 22.5t415 6.5q176 0 334 -4.5t288.5 -11.5t229.5 -16t156 -19 "
         horiz-adv-x="2242"
         unicode="–"
         glyph-name="endash" />
      <glyph
         id="glyph1498"
         d="M51 851q263 24 522 39t502.5 24.5t464.5 14t408.5 6.5t335 2t243.5 1 "
         horiz-adv-x="2900"
         unicode="—"
         glyph-name="emdash" />
      <glyph
         id="glyph1500"
         d="M676 2189q-96 -79 -160 -158.5t-100.5 -151.5t-46 -134t4.5 -108t50 -72t91 -26t123 28 M1089 2113q-85 -49 -147 -113.5t-99.5 -133t-49 -137t4.5 -127.5t60.5 -102.5t119.5 -62.5 "
         horiz-adv-x="772"
         unicode="“"
         glyph-name="quotedblleft" />
      <glyph
         id="glyph1502"
         d="M744 2105q-1 -84 -39 -179q-22 -54 -62.5 -120t-106.5 -139t-164 -149 M1092 2037q1 -99 -9.5 -191.5t-42 -173.5t-89.5 -148t-153 -115 "
         horiz-adv-x="755"
         unicode="”"
         glyph-name="quotedblright" />
      <glyph
         id="glyph1504"
         d="M953 2200q-49 -83 -88.5 -151t-71 -124.5t-56.5 -103.5t-47 -89t-42.5 -80t-41.5 -77 "
         horiz-adv-x="605"
         unicode="‘"
         glyph-name="quoteleft" />
      <glyph
         id="glyph1506"
         d="M1217 2349q-22 -50 -47 -101.5t-50 -101t-49.5 -96t-46.5 -87.5q-52 -96 -103 -184 "
         horiz-adv-x="639"
         unicode="’"
         glyph-name="quoteright" />
      <glyph
         id="glyph1508"
         d="M565 2382q-5 -198 -15.5 -373t-22 -317.5t-22 -246.5t-16.5 -159 M1423 2234q-279 -366 -536 -713q-73 -98 -148.5 -202t-150.5 -208.5t-148 -207t-139 -199.5t-124.5 -185.5t-105.5 -164.5 M1075 851q90 78 181.5 136.5t176 97.5t159.5 58.5t133 19.5q60 0 98.5 -21 t47.5 -63t-15 -105t-89 -148q-71 -94 -156.5 -183.5t-175 -170t-178.5 -148t-167 -116t-140 -76t-99 -27.5q-44 0 -44 40q0 39 14 77.5t41.5 69t68 49t92.5 18.5q66 0 148.5 -34.5t182.5 -118.5q81 -68 172.5 -96.5t192.5 -28.5q71 0 146.5 12t154 32.5t159.5 47t165 55.5  "
         horiz-adv-x="2708"
         unicode="½"
         glyph-name="onehalf" />
      <glyph
         id="glyph1510"
         d="M534 2729q-60 -227 -101 -419.5t-65 -350.5t-33.5 -281t-6.5 -210 M1513 2433q-127 -116 -251.5 -243t-242.5 -259t-228 -265.5t-207.5 -263.5t-180.5 -252t-147.5 -231.5t-108.5 -202t-63 -162.5 M1442 1487q-113 -141 -202 -242t-146.5 -169.5t-79 -110t1 -64.5t93 -32 t198.5 -14q87 -3 163 -3q143 0 250 7.5t180 17.5q86 10 147 24 M1970 1744q-75 -297 -131.5 -553t-98.5 -470.5t-70.5 -385t-47.5 -296.5 "
         horiz-adv-x="2367"
         unicode="¼"
         glyph-name="onequarter" />
      <glyph
         id="glyph1512"
         d="M203 2086q124 70 231 119.5t195.5 81.5t157.5 47t118 15q63 0 90.5 -23.5t15.5 -66.5t-65 -103t-149 -133q-44 -33 -91.5 -64t-94.5 -58.5t-92 -52t-86 -44.5q-96 -47 -187 -85q84 33 172 59q37 11 78.5 21.5t84.5 18.5t85.5 13t82.5 5q49 0 91 -9t72.5 -30.5t46 -57 t11.5 -88.5q-4 -59 -46 -117.5t-107.5 -111t-147.5 -97.5t-166.5 -78t-165 -51.5t-142.5 -18.5q-57 0 -92 17.5t-40 55.5 M1897 2284q-93 -127 -206 -270.5t-237 -291.5t-253 -294.5t-253 -280t-238 -247t-208 -195.5 M1753 1323q-148 -192 -270 -318t-209 -200 q-103 -87 -183 -134q18 1 40 2q20 0 46.5 0.5t58.5 0.5q40 0 87 -1t97 -3.5t101.5 -6.5t100.5 -11q29 -4 56 -5.5t53 -1.5q88 0 159 15.5t122 33.5q60 22 107 49 M2274 1695q-52 -149 -95 -270.5t-79 -223.5t-66 -191t-55 -173.5t-46 -170t-39.5 -181.5t-35.5 -207.5 t-33 -248.5 "
         horiz-adv-x="2533"
         unicode="¾"
         glyph-name="threequarters" />
      <glyph
         id="glyph1514"
         unicode="₤"
         glyph-name="lira" />
      <glyph
         id="glyph1516"
         d="M64 1062q141 0 268.5 5t247 10.5t233.5 10.5t228 5q48 0 96.5 -1.5t98.5 -3.5 M26 669q174 -2 339 -5q71 -1 146 -3t148.5 -4.5t140.5 -5.5t121 -7 M2002 1313q-2 109 -34.5 197t-86 156t-124.5 117.5t-151.5 81.5t-166 47t-168.5 15q-72 0 -137.5 -10.5t-122.5 -30.5 q-66 -24 -128.5 -76t-118 -125.5t-102.5 -164.5t-82.5 -192t-57.5 -209t-28 -215t6.5 -209t46.5 -193q35 -94 97 -164.5t141.5 -117.5t171.5 -71t186 -24q88 0 174 21t162 63t138 105.5t102 148.5 "
         horiz-adv-x="2317"
         unicode="€"
         glyph-name="Euro" />
      <glyph
         id="glyph1518"
         d="M2034 2201q-48 42 -106.5 72t-125 49t-139 28t-148.5 9q-118 0 -240 -19.5t-236 -53t-214 -79t-175 -96.5q-82 -56 -115.5 -123.5t-29 -144t42.5 -162t99 -178.5t140 -192.5t166 -203.5q83 -100 140.5 -206t80.5 -206.5t8.5 -190t-74.5 -156.5t-170 -106t-277 -39 q-41 0 -88 3q-190 11 -295 52.5t-140.5 105.5t-8 147.5t103 180t191.5 202t258 213.5q106 81 223 168t236.5 177.5t239 183t232 184.5t214 182t185 175.5t145.5 164.5t96 149 "
         horiz-adv-x="1908"
         unicode="Δ"
         glyph-name="uni0394" />
      <glyph
         id="glyph1520"
         d="M2034 2201q-48 42 -106.5 72t-125 49t-139 28t-148.5 9q-118 0 -240 -19.5t-236 -53t-214 -79t-175 -96.5q-82 -56 -115.5 -123.5t-29 -144t42.5 -162t99 -178.5t140 -192.5t166 -203.5q83 -100 140.5 -206t80.5 -206.5t8.5 -190t-74.5 -156.5t-170 -106t-277 -39 q-41 0 -88 3q-190 11 -295 52.5t-140.5 105.5t-8 147.5t103 180t191.5 202t258 213.5q106 81 223 168t236.5 177.5t239 183t232 184.5t214 182t185 175.5t145.5 164.5t96 149 "
         horiz-adv-x="1908"
         unicode="∆"
         glyph-name="uni0394" />
      <glyph
         id="glyph1522"
         glyph-name="fraction.1" />
      <glyph
         id="glyph1524"
         d="M933 483q136 86 208 172.5t85 157t-31.5 114.5t-140.5 44q-91 0 -227 -47.5t-312 -157.5q-144 -90 -266.5 -179.5t-216.5 -171t-156.5 -151.5t-86.5 -121.5t-6 -80.5t84 -29q51 0 129.5 18t190.5 58q139 50 245 90t185.5 72.5t135 57.5t91.5 44q86 43 102 65 q-162 -188 -347 -399q-79 -90 -170.5 -194t-191.5 -216.5t-207 -231.5t-217 -240q-109 -120 -200 -203t-163.5 -135t-127 -75t-90.5 -23q-37 0 -56 20.5t-20.5 56.5t15 84t50.5 102q67 108 207 242t359 284.5t521.5 313.5t695.5 330q262 111 464 203t354.5 168.5 t259.5 140.5t180 119.5t116.5 104t67.5 95.5 "
         horiz-adv-x="2725"
         unicode="≈"
         glyph-name="approxequal" />
      <glyph
         id="glyph1526"
         d="M933 483q136 86 208 172.5t85 157t-31.5 114.5t-140.5 44q-91 0 -227 -47.5t-312 -157.5q-144 -90 -266.5 -179.5t-216.5 -171t-156.5 -151.5t-86.5 -121.5t-6 -80.5t84 -29q51 0 129.5 18t190.5 58q139 50 245 90t185.5 72.5t135 57.5t91.5 44q86 43 102 65 q-162 -188 -347 -399q-79 -90 -170.5 -194t-191.5 -216.5t-207 -231.5t-217 -240q-109 -120 -200 -203t-163.5 -135t-127 -75t-90.5 -23q-37 0 -56 20.5t-20.5 56.5t15 84t50.5 102q67 108 207 242t359 284.5t521.5 313.5t695.5 330q262 111 464 203t354.5 168.5 t259.5 140.5t180 119.5t116.5 104t67.5 95.5 "
         horiz-adv-x="2725"
         unicode="⋲"
         glyph-name="approxequal" />
      <glyph
         id="glyph1528"
         d="M663 1036q-265 -220 -443.5 -399.5t-263.5 -306.5t-71 -196t134 -69q46 0 108.5 10.5t142.5 33.5q188 53 353.5 131t318 191t296 266.5t288.5 358.5q2 -3 -38 -62t-114 -166t-178 -256.5t-231 -334.5t-273.5 -401t-305.5 -454q-142 -214 -268 -377t-227 -273.5 t-174 -166.5t-110 -56q-50 0 -26.5 103t136.5 315q51 95 137.5 203.5t200 224.5t249.5 235.5t286 236.5t310.5 227.5t322 208.5t319.5 179.5t305 140.5t278 91.5t238 32.5q121 0 203 -46 "
         horiz-adv-x="2692"
         unicode="≠"
         glyph-name="notequal" />
      <glyph
         id="glyph1530"
         d="M10 299q284 165 464 304.5t268.5 245.5t91.5 176t-66 95q-9 4 -24 4q-35 0 -87.5 -23t-115 -63t-130 -94t-131.5 -115.5t-120.5 -128t-96.5 -132t-60 -126.5t-11 -111.5t51 -87.5t126 -55q95 -20 217 -30t261 -10q120 0 246 8t249 24t238.5 40t214 57t175.5 74.5 t123 92.5 "
         horiz-adv-x="2025"
         unicode="†"
         glyph-name="dagger" />
      <glyph
         id="glyph1532"
         d="M521 898q-242 -201 -385.5 -354.5t-192 -257t-3.5 -156.5t180 -53q81 0 199 20q110 19 186.5 57t126 89.5t75 112.5t31.5 125.5t-3.5 129t-29.5 123.5t-48 109t-58 84q-24 28 -46 40t-40 12q-23 0 -36 -17.5t-11.5 -45t21 -60.5t61.5 -63.5t109 -54t164 -33.5 q89 -9 175 -9q157 0 303 29.5t268 89t215 150t144 213.5 "
         horiz-adv-x="2058"
         unicode="‡"
         glyph-name="daggerdbl" />
      <glyph
         id="glyph1534"
         d="M657 1197q-148 -146 -289 -305.5t-270.5 -321t-245 -319t-213.5 -299.5q-230 -333 -424 -660q169 294 357 563q80 114 172.5 234.5t192.5 233t205.5 210.5t211.5 169q191 128 328 192.5t217 64.5q98 0 103 -101.5t-94 -310.5q-51 -108 -112 -199.5t-125 -158.5t-129 -105 t-124 -38q-45 0 -84.5 23.5t-72 73.5t-56.5 129t-38 191q1 1 3 -15t9 -43t21 -61.5t39.5 -71t64 -71.5t95.5 -62.5t133.5 -44.5t176.5 -17q57 0 122.5 6t140.5 20q159 29 291.5 87t242.5 135t199.5 167.5t163 184.5t133 186t109.5 173 "
         horiz-adv-x="2208"
         unicode="‰"
         glyph-name="perthousand" />
      <glyph
         id="glyph1536"
         d="M689 1017q-280 -226 -466 -403t-281 -298.5t-102.5 -185t69.5 -63.5q48 0 129 26.5t194 80.5q83 40 169 92.5t170 112t164 121.5t151 121q167 138 324 287q-213 -204 -347 -364q-57 -68 -102 -133.5t-64 -116.5t-3.5 -82.5t79.5 -31.5q27 0 63.5 6t84.5 20 q166 47 288 111.5t207.5 138.5t138 154t79.5 157.5t32 148.5t-5 127q-10 55 -33 78.5t-50 23.5t-52.5 -20.5t-37 -52.5t-3.5 -70.5t47 -74.5q24 -22 58 -42.5t78 -36t97 -24.5t116 -9q89 0 195.5 22t231 73.5t267 137.5t302.5 214 "
         horiz-adv-x="2975"
         unicode="‹"
         glyph-name="guilsinglleft" />
      <glyph
         id="glyph1538"
         d="M51 -180q282 187 517 339.5t430.5 276.5t355.5 222.5t290.5 176.5t236 138.5t192.5 109t159.5 88t136.5 74.5q100 55 187 88t144 33q45 0 64 -24.5t3 -79.5t-72 -143.5t-163 -217.5q-145 -175 -215 -312.5t-69.5 -232.5t69.5 -145t202 -50q137 0 336.5 54.5t461.5 170.5  M3972 1886q-98 -140 -222 -280.5t-265.5 -278.5t-297 -272t-316 -262t-322.5 -248.5t-317.5 -230.5t-300.5 -208.5t-271 -182.5t-229.5 -152.5t-175.5 -118.5 "
         horiz-adv-x="3317"
         unicode="›"
         glyph-name="guilsinglright" />
      <glyph
         id="glyph1540"
         d="M32 39q146 34 299 93.5t306.5 139.5t303.5 178.5t289.5 210t265.5 233t231.5 248.5t187 256t132.5 256q-1 0 -9 -28t-15.5 -75t-11.5 -107t3 -124.5t28 -128t63 -116.5t72 -93t45.5 -75t15 -69.5t-21 -76t-62 -95t-107.5 -125.5q-42 -47 -75.5 -98t-52.5 -100t-23 -93.5 t13 -78t56 -53.5t104 -20q54 0 127.5 15.5t169 50t214 89t262.5 133.5 "
         horiz-adv-x="2842"
         unicode="§"
         glyph-name="section" />
      <glyph
         id="glyph1542"
         d="M531 1019q-162 -144 -273 -268t-179 -226t-96.5 -180.5t-25 -132t34.5 -81t83 -27.5q49 0 113 26q77 32 149 83t132 116t104 141t65.5 156.5t16.5 163.5t-42 161q-28 58 -53 81.5t-42 23.5q-16 0 -23.5 -16t-3 -40t22.5 -51.5t54.5 -51.5t92 -40t134.5 -16q55 0 122 9 q113 17 227 42t223 55.5t210.5 64t189.5 66.5q207 77 396 163 "
         horiz-adv-x="2250"
         unicode="∂"
         glyph-name="partialdiff" />
      <glyph
         id="glyph1544"
         d="M997 386q-111 -70 -212 -125t-189.5 -96t-164.5 -70.5t-139 -49.5q-146 -47 -259 -59 "
         unicode="░"
         glyph-name="ltshade" />
      <glyph
         id="glyph1546"
         d="M47 36q202 62 366 123.5t282 112.5q138 59 246 114 "
         horiz-adv-x="941"
         unicode="▒"
         glyph-name="shade" />
      <glyph
         id="glyph1548"
         d="M83 -98q235 22 450 58.5t403.5 94t347.5 139t283 192.5 "
         horiz-adv-x="1567"
         unicode="▓"
         glyph-name="dkshade" />
      <glyph
         id="glyph1550"
         d="M301 1296q62 -70 104 -139t57.5 -138.5t0.5 -142t-69 -150t-150.5 -162t-243.5 -178.5 "
         horiz-adv-x="675"
         unicode="│"
         glyph-name="SF110000" />
      <glyph
         id="glyph1552"
         d="M148 782q111 21 184 21q86 0 113 -28.5t-11 -82.5t-145 -131t-289 -175 "
         horiz-adv-x="650"
         unicode="┤"
         glyph-name="SF090000" />
      <glyph
         id="glyph1554"
         d="M51 167q7 -32 35 -47t76 -15q59 0 146.5 23.5t198.5 69t243 112.5t280 153q139 81 270 169.5t249.5 177t219.5 172t179.5 153.5t130.5 121.5t71 75.5q17 21 24 40.5t6.5 34.5t-7.5 24t-19 9q-16 0 -37.5 -20t-43.5 -68q-27 -58 -25.5 -124.5t19.5 -133t48 -128.5t61 -110 t40.5 -87.5t-4.5 -83t-51.5 -97.5t-100.5 -131q-39 -49 -57 -105t-5.5 -104t59.5 -80t138 -32q53 0 122.5 13t157.5 43t194.5 77.5t233.5 116.5 "
         horiz-adv-x="2903"
         unicode="╡"
         glyph-name="SF190000" />
      <glyph
         id="glyph1556"
         d="M154 238q-8 -49 12 -74.5t75 -25.5q49 0 126.5 22t187.5 67.5t253.5 117t324.5 170.5q141 77 266.5 158t233.5 161.5t199.5 157t165.5 144.5q173 160 300 312q-125 -157 -239 -314q-49 -67 -100 -141t-98.5 -149.5t-89.5 -149.5t-72 -140q-36 -78 -77.5 -141 t-87.5 -107.5t-96 -68t-102 -23.5q-72 0 -146 48.5t-147 155.5q0 2 15.5 -15t46.5 -44.5t78 -60t110.5 -60.5t143.5 -47t177 -19q67 0 142.5 11t159 36.5t176 66t192.5 100.5 "
         horiz-adv-x="2284"
         unicode="╢"
         glyph-name="SF200000" />
      <glyph
         id="glyph1558"
         d="M0 386q377 273 650 497q78 63 151.5 126t135.5 122t110 111t74.5 93t28.5 69t-28 38q-18 6 -37 6q-45 0 -88 -35.5t-82.5 -96.5t-75 -142t-67 -171t-57.5 -185t-46 -183q-23 -101 -56.5 -189t-75.5 -153t-90 -102.5t-101 -37.5q-42 0 -85.5 26.5t-88.5 86.5 q-23 31 -36 51.5t-17.5 33t-0.5 18t15 5.5q20 0 61.5 -13t98.5 -28t127.5 -28t149.5 -13q53 0 108 7.5t112 26.5q198 64 376.5 158.5t333 210t284.5 247.5t231.5 271.5t172 281t108 277t39 259.5t-36 228t-115.5 183t-200 124 "
         horiz-adv-x="2467"
         unicode="╖"
         glyph-name="SF210000" />
      <glyph
         id="glyph1560"
         d="M488 937q-132 -102 -231.5 -204t-166.5 -196t-103 -175t-41.5 -141t19 -94.5t76.5 -34.5q41 0 98 22.5t131 73.5q120 81 200.5 166t128.5 168.5t68 161.5t17.5 145.5t-23.5 121t-53 87.5q-19 20 -40 28.5t-43 8.5q-30 0 -58 -15.5t-45 -42t-20 -60.5t16.5 -71.5t65 -75.5 t124.5 -71q75 -32 149 -45t148 -13q108 0 210 23.5t194 56.5t170 69.5t138 62.5q94 41 157 41q37 0 59.5 -15.5t26 -47t-14 -80.5t-59.5 -115q-36 -58 -67.5 -104.5t-63 -86.5t-65 -77.5t-74.5 -76.5t-91.5 -83t-116.5 -98q-47 -38 -76.5 -57.5t-37.5 -19.5q-9 0 18 27.5 t99 83t194.5 139t304.5 195.5q151 93 271 167t209 125.5t146 79t82 27.5q38 0 -1 -69t-156 -220q-56 -72 -101 -137.5t-74.5 -120.5t-41.5 -99.5t-3 -75.5t41 -48t91 -17q53 0 129.5 14.5t179.5 46t233.5 80t291.5 115.5 "
         horiz-adv-x="3107"
         unicode="╕"
         glyph-name="SF220000" />
      <glyph
         id="glyph1562"
         d="M566 830q-180 -78 -298 -157.5t-184.5 -153t-86 -138t-3 -112t64 -75t115.5 -27.5q42 0 88.5 11t97.5 34q102 47 187 116t152 150.5t115 169t74 171.5t30 158.5t-17 129.5q-17 45 -48 65t-67 20q-33 0 -66.5 -15.5t-61.5 -44.5t-46.5 -70t-21.5 -92t13.5 -110.5 t59.5 -125.5q34 -52 72.5 -88.5t80.5 -59.5t87.5 -33t91.5 -10q73 0 147.5 21t146 53.5t137 72t119.5 76.5q60 40 117 82.5t112 92t107 109t101.5 133.5t96.5 164.5t90 203.5q0 -1 -14.5 -33.5t-32 -85.5t-32.5 -121t-16.5 -141t16.5 -146t66 -136q49 -63 78 -104.5 t38.5 -69.5t0 -47t-38.5 -36t-77 -36t-116 -48t-118.5 -67.5t-79.5 -80t-35 -84.5t16 -80.5t73.5 -67t136.5 -45.5q39 -8 77.5 -11t76.5 -3q108 0 210 24t191.5 63t162.5 89t123 102 "
         horiz-adv-x="2875"
         unicode="╣"
         glyph-name="SF230000" />
      <glyph
         id="glyph1564"
         d="M485 970q-138 -121 -240 -236t-169.5 -216.5t-101.5 -186.5t-37.5 -146t23.5 -95t82 -34q44 0 105 24t139 76q132 88 227.5 194.5t158.5 215.5t96.5 212.5t41 186t-7.5 136.5t-49 64q-8 2 -12 2q-28 0 -69.5 -26.5t-84 -70.5t-80.5 -100t-58.5 -114t-17.5 -114t41.5 -100 t119 -70.5t215.5 -26.5q18 0 36.5 0.5t38.5 1.5q123 7 235 38.5t212 78.5t187.5 105t162 117.5t135.5 115.5t108 100t80 70.5t51 26.5q21 0 21.5 -43.5t-21.5 -144.5q-25 -119 -52.5 -237t-58.5 -225.5t-66 -200.5t-75 -161t-86 -107t-100 -39q-42 0 -88.5 26.5t-99.5 84.5 q-48 53 -80 94t-56.5 81t-45.5 85.5t-48 108.5q4 0 19 -32t44.5 -80t76 -104.5t112 -104.5t152 -80t197.5 -32q71 0 151 15.5t171.5 50.5t194.5 92t218 140 "
         horiz-adv-x="2533"
         unicode="║"
         glyph-name="SF240000" />
      <glyph
         id="glyph1566"
         d="M415 768q-126 -88 -222.5 -174.5t-163.5 -165t-104.5 -145.5t-46 -116t12 -76.5t69.5 -27.5q47 0 118 27.5t168 88.5q123 78 206 164.5t133 171.5t69.5 162.5t15 137t-30 94.5t-65.5 35q-22 0 -48 -12q-49 -23 -81.5 -61t-41 -81t10 -86.5t72 -79t145.5 -57.5t230 -22 t33.5 1q116 5 222.5 21t202 39.5t179 52.5t152.5 58q162 68 292 152q-193 -107 -370 -221q-75 -49 -154.5 -104t-154 -113t-140 -117t-113.5 -116q-47 -56 -66 -96t-15 -66t27 -38t60 -12q38 0 88 12.5t104.5 35.5t110 56t106.5 74q50 41 84 82.5t56 81t33.5 77 t15.5 70.5q10 77 -10 148q34 -71 113 -126q34 -24 81.5 -47t110.5 -40.5t143 -28.5t180 -11q57 0 119 4t132 12 "
         horiz-adv-x="2516"
         unicode="╗"
         glyph-name="SF250000" />
      <glyph
         id="glyph1568"
         d="M0 386q173 189 317.5 356.5t259 309.5t199 255t138.5 192.5t76.5 121.5t13.5 42q-11 0 -66.5 -61.5t-156.5 -193.5q-90 -118 -186.5 -245.5t-195.5 -260.5t-199 -268t-198.5 -267t-193 -258t-182 -241t-167 -216.5t-146.5 -183.5q-91 -111 -130.5 -197t-37.5 -145 t41 -89.5t105 -30.5q63 0 146 29.5t177 89.5q96 62 162 152.5t107.5 194.5t61 214.5t23.5 211.5t-4.5 186t-23.5 139q-2 0 26 -9t80.5 -19.5t127 -19.5t166.5 -9q70 0 149 7t164.5 24.5t176 46.5t183.5 74q108 51 212.5 132.5t202 179t186 205t164.5 212.5q178 246 333 524 q-200 -307 -407 -604q-88 -127 -186.5 -264t-200 -272.5t-203 -263.5t-196.5 -236q-88 -101 -141 -194.5t-76.5 -176t-20 -150.5t28 -117t66.5 -76t96 -27q70 0 153 49t169 160q95 122 158 242t100.5 230.5t52.5 208t13 175t-18 131.5t-40 77q-14 13 -30 13 q-22 0 -40.5 -25.5t-26 -63t-1 -82t35 -82t82.5 -63t141 -25.5q57 0 129 13t161 42.5t196.5 77.5t235.5 118 "
         horiz-adv-x="2342"
         unicode="╝"
         glyph-name="SF260000" />
      <glyph
         id="glyph1570"
         d="M893 764q47 78 71 147t24 120.5t-24.5 81.5t-75.5 30q-66 0 -175.5 -58t-266.5 -192q-114 -98 -206 -195.5t-158 -187.5t-104.5 -167.5t-46 -135t17 -90t85.5 -32.5q30 0 68.5 8.5t86.5 26.5q114 43 200.5 85.5t155 88.5t124 97.5t106 112.5t101.5 133.5t111 160.5 q0 -2 -20.5 -57.5t-58 -151t-90 -225t-116 -280.5t-137 -317t-153.5 -333q-86 -181 -175.5 -302.5t-175 -194.5t-162 -104t-136.5 -31q-46 0 -80 15t-52 41q-22 30 -7.5 103.5t62.5 176t128.5 228.5t190.5 261t249 272.5t304 263.5q124 95 247 180t239 159.5t223.5 138 t200.5 115.5q219 122 415 214 M2293 637q26 100 31 179.5t-12.5 135t-56 85t-99.5 29.5q-97 0 -249.5 -82.5t-361.5 -262.5q-139 -120 -216 -232.5t-95.5 -199t19.5 -138.5t128 -52q62 0 147.5 28t193.5 89t238 158t280 235q3 -3 -32.5 -74t-104.5 -212t-169 -352.5 t-226 -494.5q-76 -171 -157.5 -296t-158 -206.5t-143.5 -121.5t-114 -40q-31 0 -51.5 17t-27.5 50t1 81.5t33 112.5q32 80 96 168.5t150.5 180t191 184.5t218.5 183.5t232.5 176t232.5 162t220 142.5t194 116 "
         horiz-adv-x="2625"
         unicode="╜"
         glyph-name="SF270000" />
      <glyph
         id="glyph1572"
         d="M223 824q136 104 261.5 217.5t238.5 228t210.5 226t177 212t138.5 186t94.5 148t46 97.5t-8.5 35q-24 0 -101.5 -69t-215.5 -225q-140 -158 -271.5 -312.5t-248 -300.5t-214 -280t-170 -251t-116 -214t-51.5 -168t23.5 -113.5t108.5 -50.5q10 -1 19.5 -1.5t20.5 -0.5 q83 0 195.5 29t244 82t278.5 128t300 167t307 199t300.5 224t280.5 241.5t246 252.5q140 160 229.5 281t132.5 202.5t41 122.5t-44 41q-56 0 -174.5 -70.5t-295.5 -216.5q-111 -92 -223.5 -200t-220.5 -224.5t-207.5 -238.5t-184.5 -240.5t-152 -231t-109.5 -210t-57 -177.5 t4.5 -134q20 -57 79 -85t148 -28q72 0 160.5 18t189 54t210.5 89t225 123 "
         horiz-adv-x="2068"
         unicode="╛"
         glyph-name="SF280000" />
      <glyph
         id="glyph1574"
         d="M0 386q298 269 487.5 401t272.5 132q111 0 32 -230q-24 -71 -58.5 -132.5t-75 -114t-84 -95.5t-85.5 -77q-98 -81 -206 -135q141 93 287 186q62 40 131 84.5t140 89.5t142 89.5t137 84.5q149 91 221 91q48 0 55 -41.5t-34.5 -126t-135 -213t-248.5 -302.5q0 -1 32.5 29 t89 80t132 115t161.5 133.5t178 135t180 119.5q87 52 137 75t73 23t19 -22t-26 -60.5t-59 -90.5t-80 -112q-33 -45 -67.5 -95.5t-64 -99t-50.5 -93t-26.5 -78.5t8 -54t53.5 -20q43 0 120.5 27.5t200.5 90.5q125 64 244.5 147t229 169.5t207 169.5t178 148t142 105t98.5 40 q26 0 39.5 -21t13.5 -69q0 -85 -7.5 -154t-29.5 -131.5t-61.5 -122.5t-103 -128.5t-155 -149t-216.5 -183.5q1 0 27 22t71.5 59.5t106.5 88.5t133 109.5t151.5 121t161 124t161.5 118.5t154 104q97 62 166.5 89t117.5 27q49 0 74 -26t29 -70.5t-11.5 -104.5t-47.5 -128 q-24 -51 -59.5 -101t-77 -98t-86.5 -92.5t-89 -83.5q-102 -90 -216 -172q149 102 301 206q65 45 136 94t144 99t145 99t137 94q126 87 192.5 138t76.5 51q5 0 -6.5 -17t-39.5 -53t-72 -93t-104 -137q-63 -84 -86 -148.5t-13 -108t50 -66t102 -22.5q52 0 117.5 16t140 48.5 t156 82t166.5 116.5 "
         horiz-adv-x="4877"
         unicode="┐"
         glyph-name="SF030000" />
      <glyph
         id="glyph1576"
         d="M0 391q263 221 438 327.5t258 106.5q60 0 72 -53t-26 -156q-22 -62 -59.5 -121.5t-83.5 -114.5t-97.5 -105t-101.5 -93q-117 -100 -252 -186q186 130 368 258q78 54 162.5 113t169 117.5t165 114t149.5 103.5q57 39 110.5 74t100 61.5t84 42.5t62.5 16t36 -17t5 -56 t-30.5 -102t-71 -154.5t-117 -214t-168.5 -280.5q2 0 33.5 16t88 45.5t134.5 71t171.5 93t201 112t222.5 126.5q188 109 328 171.5t222 62.5q72 0 93.5 -53.5t-13.5 -173.5q-19 -64 -52 -126.5t-74 -121t-87.5 -112t-92.5 -100.5q-107 -110 -230 -206q186 123 366 244 q77 52 159.5 108.5t164.5 113.5t159.5 112t142.5 103q63 46 118.5 83t102 62.5t82.5 39.5t59 14q25 0 33 -17.5t-4 -54t-45.5 -94t-91.5 -138.5q-121 -169 -143.5 -263t56.5 -94q65 0 202 71t345 224 "
         horiz-adv-x="3825"
         unicode="└"
         glyph-name="SF020000" />
      <glyph
         id="glyph1578"
         d="M657 1120q-358 -397 -659 -736q-85 -97 -171 -195t-167.5 -191.5t-155 -180t-134.5 -160t-106 -131t-69 -92.5q1 1 40.5 43.5t107.5 114t161 166t201.5 199.5t228.5 214.5t242.5 211t243 189.5t230.5 149q147 82 245 118t156 36q57 0 77.5 -31.5t10 -85.5t-47 -125 t-93.5 -150q-46 -64 -101.5 -117.5t-116 -91.5t-123 -59t-123.5 -21q-51 0 -100 16t-92 51t-79 90t-63 132q1 -1 17 -25t49 -58t84 -74t122.5 -74t165 -56.5t211.5 -22.5q69 0 146 9.5t164 29.5q133 32 239 80.5t189.5 107t145.5 123t107 126.5q104 145 149 310l-985 -1313 q246 309 494 570q70 74 145.5 149t153.5 146.5t157 136.5t156.5 119.5t152.5 95.5t144 64q63 21 110 31t82 10q48 0 71.5 -17t28.5 -46.5t-7 -68t-34.5 -82.5t-53 -90t-64.5 -89.5t-68.5 -82t-64.5 -67.5q-69 -67 -143.5 -110t-147.5 -43q-37 0 -72.5 13t-68.5 41 t-63.5 73.5t-57.5 109.5q1 0 8 -22.5t25.5 -56.5t51 -73t83 -73t122.5 -56.5t170 -22.5q116 0 272 40t360 138 "
         horiz-adv-x="2950"
         unicode="┴"
         glyph-name="SF070000" />
      <glyph
         id="glyph1580"
         d="M0 386q143 125 246.5 237t175.5 207.5t116.5 172t68.5 130.5t32.5 83t8.5 30t-13 -31t-31 -84.5t-36 -119.5t-28.5 -137t-9 -137.5t23.5 -120.5q21 -51 20.5 -101.5t-14.5 -98t-37 -91.5t-46.5 -81.5t-43 -68.5t-26 -53t4 -34t46.5 -12q29 0 75 8t115 25 q140 34 275.5 105t258 161t229 191.5t190 196.5t139.5 175.5t78 129.5q27 61 24 89t-23 28q-14 0 -33.5 -13t-40 -37.5t-39 -59.5t-30.5 -79q-13 -50 -13 -106t5 -115t9.5 -118.5t-1 -115.5t-26 -106t-64.5 -91q-52 -48 -66.5 -97.5t5 -89.5t70 -65t128.5 -25 q53 0 117.5 14.5t133.5 39t139 56.5t134 67.5t118 72t91 69.5 "
         horiz-adv-x="2456"
         unicode="┬"
         glyph-name="SF060000" />
      <glyph
         id="glyph1582"
         d="M0 386q179 108 321.5 198t252.5 164t191.5 132t138.5 103q135 105 187 166q-102 -103 -197 -213q-40 -47 -82.5 -100.5t-83 -110t-76.5 -114.5t-63 -114q-40 -82 -68.5 -157.5t-53 -133.5t-48.5 -92t-56 -34t-73.5 38.5t-101.5 127.5q-56 83 -78 116t-13 33 q7 0 29.5 -13.5t60 -33.5t89 -43t116 -43t142 -33.5t165.5 -13.5q92 0 194.5 18t216.5 61q149 56 273 121.5t226 134.5t182.5 138t142.5 132q144 148 229 300q-81 -140 -162 -279q-34 -59 -71.5 -124t-76 -130.5t-75 -129t-69.5 -119.5q-57 -98 -127.5 -143.5t-140.5 -45.5 q-45 0 -87.5 17.5t-78.5 50t-63.5 79t-43.5 105.5q-31 114 -45.5 161t-10.5 47t24 -31t58 -78t94.5 -101.5t134 -101.5t176 -78t220.5 -31q65 0 136.5 10.5t150.5 34t165 61.5t179 92 "
         horiz-adv-x="2450"
         unicode="├"
         glyph-name="SF080000" />
      <glyph
         id="glyph1584"
         d="M101 1386q899 80 1650 161q213 23 427.5 48t416.5 50.5t385 51.5t332.5 52t259 51.5t165.5 48.5 M1356 1802q-462 -420 -771.5 -733t-471 -521t-176.5 -311.5t113 -103.5q136 0 431 116q234 92 445 210t405.5 254t376 287.5t355 311.5t343 325t341.5 328q2 -5 -25 -32.5 t-75.5 -73.5t-116.5 -110t-148.5 -141.5t-171 -168.5t-184 -191.5t-187.5 -209.5t-183 -223q-116 -150 -186 -278t-83.5 -221.5t34 -146.5t164.5 -53q122 0 326 64t499 206 "
         horiz-adv-x="2410"
         unicode="─"
         glyph-name="SF100000" />
      <glyph
         id="glyph1586"
         d="M855 584q46 96 63 179.5t7 145.5t-46 97.5t-97 35.5q-74 0 -183 -59.5t-249 -194.5q-103 -99 -184 -190t-138 -170t-88.5 -143.5t-36 -110.5t19.5 -71t79 -25q69 0 186 43q86 32 159.5 70.5t134.5 79.5t110.5 83t88.5 81q91 92 149 188q-97 -136 -136 -242 q-16 -46 -21.5 -89.5t9 -77.5t53 -55t110.5 -21q51 0 121 12q154 28 288.5 68t235.5 77q118 44 218 91 "
         horiz-adv-x="1708"
         unicode="┼"
         glyph-name="SF050000" />
      <glyph
         id="glyph1588"
         d="M879 676q62 105 95.5 187.5t39.5 139t-15.5 86.5t-68.5 30q-77 0 -222.5 -84t-354.5 -266q-189 -164 -297.5 -303.5t-145 -241.5t-5.5 -160t120 -58q42 0 96 14t120 43q86 38 165.5 88t151 106t134.5 115t115 115q122 130 221 271q-135 -171 -214 -304q-34 -57 -59 -112 t-31.5 -98t10 -69t66.5 -26q33 0 81.5 13t116 41t155 73.5t197.5 109.5 "
         horiz-adv-x="1350"
         unicode="╞"
         glyph-name="SF360000" />
      <glyph
         id="glyph1590"
         d="M1096 550q110 87 188 172t124.5 162t62 142.5t1 114t-59 75.5t-116.5 27q-68 0 -159 -26t-206 -84q-88 -44 -180 -100.5t-182 -121t-175 -133.5t-160 -138.5t-136.5 -137t-104.5 -128.5t-64.5 -112.5t-16 -89t41 -58.5t106.5 -21q35 0 79 5.5t98 17.5q150 33 270.5 74.5 t214 87t163.5 93.5t120 93q118 105 168 217q-128 -148 -187 -264q-25 -49 -37 -96.5t-0.5 -85t52 -60t120.5 -22.5t17 1q78 5 151 17t139 29.5t124 37.5t107 41q115 48 208 107 "
         horiz-adv-x="1883"
         unicode="╟"
         glyph-name="SF370000" />
      <glyph
         id="glyph1592"
         d="M13 315q353 217 623 405t467.5 346.5t328 287.5t202.5 227.5t90.5 167t-5.5 105.5q-17 26 -44 42.5t-70 16.5q-38 0 -90.5 -17t-122 -57t-158.5 -106t-199.5 -164.5t-245.5 -232t-297 -308.5q-177 -191 -293 -341.5t-181 -264.5t-83 -194t2 -130.5t72 -73.5t128 -23 q59 0 127.5 12t145.5 35q126 37 234.5 95t204.5 132t182.5 160.5t167 181.5t158 194.5t156.5 199.5q0 -1 -15.5 -21t-39 -54t-51.5 -79t-53 -95.5t-43 -103.5t-22 -103.5t10 -95t53 -78t107.5 -53t173.5 -19.5q95 0 223 18.5t294 58.5 "
         horiz-adv-x="2150"
         unicode="╚"
         glyph-name="SF380000" />
      <glyph
         id="glyph1594"
         d="M558 492q83 141 132.5 256.5t64.5 198.5t-3 128.5t-70 45.5q-56 0 -152.5 -60t-232.5 -192q-128 -124 -197 -230t-91.5 -192t-4.5 -152.5t64.5 -111.5t115.5 -68.5t149 -23.5q81 0 160 12.5t154 33t144 47t128 54.5q140 65 264 148 "
         horiz-adv-x="1183"
         unicode="╔"
         glyph-name="SF390000" />
      <glyph
         id="glyph1596"
         d="M729 763q87 111 133 201.5t55.5 154t-16 98t-82.5 34.5q-70 0 -181.5 -55.5t-260.5 -176.5q-127 -103 -211.5 -212t-126 -212.5t-39 -195t48.5 -160t136.5 -108.5t225.5 -40t21.5 1q77 4 153.5 18.5t148.5 36t138.5 47.5t124.5 53q135 62 256 139 "
         horiz-adv-x="1275"
         unicode="╩"
         glyph-name="SF400000" />
      <glyph
         id="glyph1598"
         d="M966 463q78 164 118 299.5t42 233t-34.5 151.5t-112.5 54t-190.5 -58t-269.5 -184q-130 -106 -241 -222.5t-195 -229t-137.5 -214.5t-69 -179t11 -122.5t101.5 -45.5q45 0 106.5 17.5t142.5 55.5q166 77 326.5 186.5t320 245t319.5 295.5t323.5 339t333 374t347.5 401 q-1 -2 -28 -33t-73.5 -84.5t-109.5 -126.5t-136.5 -159.5t-154 -183.5t-162.5 -199.5t-162.5 -206.5t-152.5 -204q-90 -124 -142 -228t-62 -178.5t26 -116t121 -41.5q104 0 286 68t450 219 "
         horiz-adv-x="1908"
         unicode="╦"
         glyph-name="SF410000" />
      <glyph
         id="glyph1600"
         d="M927 661q69 69 124 140.5t92.5 137.5t57 124.5t18 101.5t-25.5 68t-74 25q-57 0 -147 -36.5t-220 -120.5q-106 -69 -207.5 -147.5t-191.5 -160t-165.5 -163t-129.5 -156t-84 -139t-29 -111.5t36 -74t111 -27q65 0 159 22q125 29 257.5 95.5t268 160.5t270.5 209 t264.5 240.5t251 256.5t230 256t201.5 238.5t164 204.5q0 -1 -29 -36t-79.5 -95t-117.5 -139.5t-142.5 -170t-156 -186.5t-157.5 -189t-146.5 -177.5t-122.5 -151.5q-72 -90 -93.5 -172t6 -145t103 -100.5t198.5 -37.5q122 0 287 42t376 138 "
         horiz-adv-x="2084"
         unicode="╠"
         glyph-name="SF420000" />
      <glyph
         id="glyph1602"
         d="M5 357q120 82 234 181q49 42 101.5 92t103.5 106t98 117.5t86 126.5q65 110 72.5 162.5t-28.5 52.5q-24 0 -66 -24t-95.5 -71t-117 -116t-131.5 -158q-41 -54 -82.5 -115.5t-79 -125t-68 -127t-49.5 -122t-24 -108.5t9 -87t49 -58t97 -21q54 0 129 17.5t174.5 56.5 t225.5 100.5t282 149.5 "
         horiz-adv-x="925"
         unicode="═"
         glyph-name="SF430000" />
      <glyph
         id="glyph1604"
         d="M14 237q245 148 410.5 281t254.5 233t103 159t-45 59q-23 0 -57.5 -10t-80.5 -32q-68 -32 -144 -83t-149.5 -113t-139 -130t-113.5 -134t-73 -126t-16 -105.5t56 -72.5t143 -27q85 2 160 14t140.5 30t121 40t100.5 45q105 54 183 121 "
         horiz-adv-x="884"
         unicode="╬"
         glyph-name="SF440000" />
      <glyph
         id="glyph1606"
         d="M14 290q251 146 437 271t315.5 229t206 188t109.5 148.5t26 109.5t-46 72q-34 24 -83 24q-68 0 -157.5 -43.5t-192 -121t-213 -185t-220.5 -235.5q-63 -74 -108.5 -147t-67.5 -139.5t-19.5 -123.5t35 -98.5t96.5 -65t164 -23.5q143 0 365 55t536 181 "
         horiz-adv-x="1200"
         unicode="╧"
         glyph-name="SF450000" />
      <glyph
         id="glyph1608"
         d="M438 850q318 268 542 483t359 365.5t183 231.5t14 81q-28 0 -109.5 -59t-216.5 -184q-152 -141 -313.5 -309.5t-323.5 -354.5t-319.5 -384t-302 -398.5t-272 -399t-228.5 -385.5q-81 -150 -133 -255t-76.5 -171.5t-21.5 -96.5t33 -30q26 0 71.5 21t110 58.5t148 90 t185.5 116.5q119 75 194.5 171t118 201t56.5 213.5t10.5 207.5t-19.5 183t-34 140q2 0 3.5 -15.5t9 -38.5t22.5 -50.5t43 -50.5t71.5 -38.5t106.5 -15.5q48 0 108 10.5t135 35t165.5 64.5t199.5 99 "
         horiz-adv-x="958"
         unicode="╨"
         glyph-name="SF460000" />
      <glyph
         id="glyph1610"
         d="M319 488q265 173 475.5 316.5t373.5 262.5t282.5 214.5t202.5 172t134 135t77 103t30.5 77t-5 56.5t-28.5 41t-41 31q-18 12 -43 12q-47 0 -124.5 -45.5t-192 -146.5t-269.5 -262.5t-358.5 -394t-459.5 -541t-571 -702.5q-174 -218 -300 -388t-209.5 -297.5 t-129.5 -215.5t-60.5 -142.5t-0.5 -79t48 -24.5t85.5 21t113.5 56.5t131 83.5t139 102.5t137 112.5t124 113q174 167 275 318t142.5 291t28.5 271.5t-69 260.5q-16 38 -35.5 64.5t-40.5 43t-42 24t-41 7.5q-33 0 -60 -17t-41 -43t-11.5 -57.5t28 -61t78.5 -53.5t140 -35 q72 -9 147 -9q84 0 168 9.5t164 25.5t154.5 36t138.5 41q151 49 288 111 "
         horiz-adv-x="1292"
         unicode="╤"
         glyph-name="SF470000" />
      <glyph
         id="glyph1612"
         d="M1365 663q95 219 69.5 336t-174.5 117q-115 0 -301.5 -72.5t-449.5 -225.5q-131 -77 -237.5 -160.5t-183 -164.5t-120 -154t-48.5 -128.5t31 -88t118 -32.5q54 0 127.5 15t170.5 49q135 47 246 93.5t199.5 90.5t156.5 84t119 75q119 81 180 153q-68 -105 -163 -251 q-81 -125 -200 -308.5t-278 -425.5q-82 -126 -172 -244t-180 -221t-177.5 -188.5t-166 -146.5t-145 -95t-113.5 -34q-40 0 -64.5 25t-29.5 80q-6 63 36.5 141.5t126 168t203.5 189t268 204t320 212.5t359 215.5t385 212t398 202.5 "
         horiz-adv-x="1675"
         unicode="╥"
         glyph-name="SF480000" />
      <glyph
         id="glyph1614"
         d="M1294 708q34 88 37.5 153t-20 108.5t-71 65t-115.5 21.5q-124 0 -303 -69.5t-393 -207.5q-123 -80 -218 -163t-160 -160.5t-99 -146.5t-37 -120t26.5 -80.5t91.5 -29.5q45 0 105.5 16.5t138.5 52.5q137 63 245 114.5t195 97t156.5 87.5t129.5 85.5t114.5 91t111.5 103.5 q-2 -4 -45 -74.5t-131 -216.5t-224 -373t-325 -544q-153 -256 -294 -451.5t-264 -328t-224 -200t-173 -67.5q-71 0 -110 63q-34 54 -8.5 158t116 244.5t248.5 310.5t388 357.5t535 386t690 394.5 "
         horiz-adv-x="1408"
         unicode="╙"
         glyph-name="SF490000" />
      <glyph
         id="glyph1616"
         d="M1262 1399q247 90 435 184t323 184.5t220 174t126 153t40.5 120.5t-37.5 77q-7 6 -20 6q-40 0 -122.5 -57.5t-202.5 -159.5t-275 -241.5t-340 -304.5t-397.5 -348.5t-447 -372t-488.5 -376t-522 -361.5q1 0 38.5 25t102.5 67.5t153.5 99t193 119t220 127t234.5 124 t237.5 110t227.5 84.5q167 52 267.5 78t146.5 26q38 0 43.5 -17.5t-14 -53t-61 -89t-98.5 -125.5q-46 -58 -90 -121t-76.5 -123.5t-50 -114.5t-12.5 -95t37 -65t99 -24q50 0 121.5 15t167.5 48t218.5 86t274.5 128 "
         horiz-adv-x="1934"
         unicode="╘"
         glyph-name="SF500000" />
      <glyph
         id="glyph1618"
         d="M807 1187q183 39 343.5 106.5t298 151.5t251 177.5t202.5 183.5t152.5 169.5t99.5 135.5q32 49 49.5 91.5t19 74t-13.5 50t-48 18.5q-47 0 -133.5 -44t-216.5 -147q-77 -61 -182.5 -158t-232 -220t-269.5 -266t-295 -295.5t-309.5 -310t-312.5 -309.5t-304 -292.5 t-284 -259.5q3 3 37 29.5t90 69t130.5 98t160.5 118t179 128.5t185 128.5t179.5 119t163.5 99.5q134 77 221 118.5t127 41.5q50 0 19.5 -73t-144.5 -233q-48 -67 -86 -137t-61.5 -136t-29 -124.5t11.5 -102t60 -69t117 -25.5q56 0 130 16t169.5 51.5t213 91t259.5 134.5  "
         horiz-adv-x="1754"
         unicode="╒"
         glyph-name="SF510000" />
      <glyph
         id="glyph1620"
         d="M695 995q-301 -215 -483.5 -382.5t-253.5 -282t-34 -174.5t174 -60q67 0 145.5 12t162 33t168 49.5t164 60.5t151 66.5t128.5 68.5 M1105 2064q-12 5 -11.5 11.5t7.5 12.5t18 10t20 4q11 0 15 -8.5t-11 -29.5 "
         horiz-adv-x="1017"
         unicode="╓"
         glyph-name="SF520000" />
      <glyph
         id="glyph1622"
         d="M1320 1873q-19 11 -20.5 21.5t7.5 19t24.5 14t31.5 5.5q13 0 23.5 -4t15.5 -12.5t3 -22.5t-15 -34 M618 959q-249 -204 -407.5 -351.5t-225 -243t-40.5 -141t146 -45.5q84 0 213 21q148 24 266.5 56.5t203.5 61.5q99 34 176 69 "
         horiz-adv-x="950"
         unicode="╫"
         glyph-name="SF530000" />
      <glyph
         id="glyph1624"
         d="M546 2041q-19 11 -20.5 21.5t7.5 19t24.5 14t31.5 5.5q13 0 23.5 -4t15.5 -12.5t3 -22.5t-15 -34 M577 1008q-171 -139 -291 -259t-194.5 -217.5t-105.5 -173t-24.5 -127t48.5 -78t114 -26.5q60 0 143 20q146 35 258 77t190 78q92 42 160 84 "
         horiz-adv-x="875"
         unicode="╪"
         glyph-name="SF540000" />
      <glyph
         id="glyph1626"
         d="M683 2073q-19 11 -20.5 21.5t7.5 19t24.5 14t31.5 5.5q13 0 23.5 -4t15.5 -12.5t3 -22.5t-15 -34 M340 1029q-126 -259 -306 -582q-76 -138 -171.5 -303.5t-210 -355t-248 -401t-285.5 -440.5q-172 -259 -314.5 -448t-251 -312t-182 -182.5t-106.5 -59.5q-53 0 -4 136 t213 393q94 147 211 294t249 290t275 279.5t289 263.5t290.5 242.5t280 215.5t258 182.5t223.5 144.5 "
         horiz-adv-x="550"
         unicode="┘"
         glyph-name="SF040000" />
      <glyph
         id="glyph1628"
         d="M-266 51q317 333 644 668q140 143 295 300.5t315 317t319 315.5t307 296q-2 -3 -34.5 -34.5t-88 -88t-131.5 -136.5t-166 -180t-190.5 -218.5t-205.5 -251.5q-95 -121 -137.5 -207.5t-42.5 -141.5t37.5 -81t102.5 -26q85 0 205 40.5t256 114.5q81 44 147.5 91.5 t115.5 92.5t79.5 85.5t39 71t-6 48.5t-54.5 18q-49 0 -138.5 -30.5t-225.5 -101.5q-118 -61 -198.5 -129t-130 -138.5t-71 -141t-20 -136.5t22.5 -125t56 -107t81 -82.5t97 -50.5q88 -28 188 -28q86 0 174.5 21t175.5 60t170.5 95.5t160.5 128.5 "
         horiz-adv-x="1884"
         unicode="┌"
         glyph-name="SF010000" />
      <glyph
         id="glyph1630"
         d="M257 747q258 114 490.5 244t436 265t375.5 269.5t308 257.5t233.5 229.5t152 184.5t64.5 122.5t-30 44.5q-30 0 -88 -27.5t-148 -87.5q-283 -190 -537 -388t-484.5 -400t-441 -404.5t-406.5 -402.5q-125 -127 -169 -235.5t-22.5 -188t99.5 -124t197 -44.5q74 0 160 18.5 t181 57.5t197 100.5t208 147.5 "
         horiz-adv-x="1033"
         unicode="█"
         glyph-name="block" />
      <glyph
         id="glyph1632"
         d="M10 377q246 152 458.5 304.5t391 298.5t322.5 281.5t253 253.5t182.5 214.5t110.5 163.5q38 68 49.5 131.5t-1 113.5t-50 80t-99.5 30q-61 0 -145.5 -35.5t-192.5 -117.5q-107 -82 -220.5 -191t-226 -235t-222 -264t-209 -279t-187 -278.5t-156.5 -263.5 q-63 -114 -70.5 -214t31.5 -174t121 -116.5t197 -42.5q74 0 161 19.5t184.5 62t204 108.5t219.5 159 "
         horiz-adv-x="1116"
         unicode="▄"
         glyph-name="dnblock" />
      <glyph
         id="glyph1634"
         d="M0 386q153 188 296 326.5t269.5 230t232 136.5t182.5 45q72 0 116 -36.5t56 -109.5q13 -77 -1 -154t-46.5 -151.5t-81 -146t-104 -137.5t-115.5 -126t-116 -111q-40 -37 -80 -70.5t-75 -59t-61 -41t-38 -15.5q-10 0 -6.5 15t27 48t68 86.5t114.5 130.5q98 108 202.5 200 t208 169t202.5 140t186.5 113t159.5 87t123 62q34 17 69 27t66 10q37 0 63 -17.5t29.5 -59.5t-20.5 -110.5t-86.5 -170.5t-169 -241t-267.5 -320q-1 -1 36 32.5t101.5 91.5t149.5 134.5t179.5 160.5t191.5 170.5t186 163.5q129 112 214.5 172.5t121.5 60.5q39 0 16.5 -74.5 t-114.5 -235.5q-54 -94 -101.5 -181t-81.5 -161.5t-50 -135.5t-7.5 -104t45.5 -66.5t110 -23.5q55 0 131.5 14t178 44t229.5 77t286 112 "
         horiz-adv-x="3225"
         unicode="▌"
         glyph-name="lfblock" />
      <glyph
         id="glyph1636"
         d="M0 386q292 258 467.5 390.5t248.5 132.5q83 0 47 -181q-15 -79 -46 -159t-70 -153.5t-83.5 -137.5t-87.5 -111t-80.5 -74t-63.5 -27q-10 0 -14 2q-17 7 -8 36t39.5 73.5t79.5 101.5t111.5 118.5t135.5 124t151 120t158.5 105.5t157.5 79q103 42 189 61.5t154 19.5 q69 0 117.5 -19t73.5 -55t25.5 -87t-26.5 -116q-18 -42 -50 -86.5t-72.5 -89t-86 -87.5t-90.5 -81q-106 -90 -229 -177q148 137 312 268q70 56 150 115t166.5 116.5t176.5 110.5t180 96q142 68 221 99.5t108 31.5q23 0 19 -18t-29 -53t-67.5 -86t-96.5 -116 q-42 -50 -81.5 -103.5t-67.5 -104.5t-40.5 -96t0 -79.5t55 -54.5t122.5 -20q52 0 122 9.5t160.5 30t202 53t247.5 78.5 "
         horiz-adv-x="3008"
         unicode="▐"
         glyph-name="rtblock" />
      <glyph
         id="glyph1638"
         d="M0 386q162 167 296 287.5t240.5 198.5t185.5 115.5t130 37.5q63 0 84.5 -52t4.5 -152q-12 -65 -42.5 -136t-73 -142t-93 -140.5t-101.5 -131.5q-120 -147 -264 -290q82 112 198 238q100 108 246.5 245.5t342.5 283.5q167 124 267 191.5t135 67.5q39 0 -6.5 -94 t-178.5 -300q-152 -236 -144 -354t180 -118q125 0 336.5 61t515.5 184 "
         horiz-adv-x="2259"
         unicode="▀"
         glyph-name="upblock" />
      <glyph
         id="glyph1640"
         d="M0 386q198 159 367.5 279t306 201t237.5 121.5t162 40.5q69 0 84.5 -51t-27.5 -156q-36 -87 -87 -170t-108.5 -156.5t-117.5 -135.5t-113.5 -107t-96 -70t-65.5 -25q-16 0 -21 12q-6 15 13.5 44.5t59 69.5t96 87.5t125 99.5t145.5 106t157.5 106t161 99.5t155.5 87.5 q130 69 223 107.5t143 38.5q33 0 44 -19t-2.5 -60t-54 -105.5t-109.5 -154.5q-82 -107 -127.5 -188.5t-51 -136t31.5 -82.5t121 -28q94 0 250 36t379 109 "
         horiz-adv-x="2281"
         unicode="☻"
         glyph-name="invsmileface" />
      <glyph
         id="glyph1642"
         d="M642 1178q-244 -252 -405.5 -453.5t-239 -342t-70 -215.5t100.5 -75q48 0 119 21t167 66q153 71 270.5 153.5t201 167.5t134.5 168t72 154.5t12.5 127.5t-43.5 88q-15 14 -38.5 20t-53.5 6q-45 0 -101 -13t-113 -36t-110 -54t-94 -67.5t-64.5 -77t-20.5 -81t37.5 -80.5 t108.5 -76q120 -58 217.5 -107t181 -85t158 -56t148.5 -20q66 0 135 18t148 57 "
         horiz-adv-x="1500"
         unicode="♥"
         glyph-name="heart" />
      <glyph
         id="glyph1644"
         d="M768 1361q-202 -214 -350 -390.5t-249 -316t-159.5 -243t-82 -172t-16.5 -102t36 -33.5q27 0 69.5 27t94.5 81q56 58 99.5 118t75.5 118.5t54.5 113.5t37.5 104q35 115 42 222q38 -156 109 -278q30 -52 70 -102t92 -89t116 -63t142 -24q54 0 113.5 12.5t126.5 41.5 "
         horiz-adv-x="1189"
         unicode="♦"
         glyph-name="diamond" />
      <glyph
         id="glyph1646"
         d="M721 1294q-156 -198 -293.5 -371t-260.5 -326.5t-233 -291t-210.5 -264.5t-193 -246.5t-181 -237.5t-174.5 -237.5t-173 -246.5q1 2 34 49.5t90.5 127t136 185t171 226t195 248.5t208.5 252t211 238t203 206q209 196 375 292t269 96q91 0 124.5 -71t-2.5 -214 q-23 -93 -42.5 -176.5t-41 -155t-48.5 -129.5t-65 -98.5t-91 -62.5t-126 -22q-20 0 -42 1.5t-46 5.5q-55 8 -98.5 29.5t-77 50.5t-58.5 63.5t-43 68.5q-42 82 -58 180q29 -106 93 -189q27 -36 64.5 -70t87 -60.5t112.5 -43t141 -16.5q71 0 154.5 15.5t182 51.5t212.5 93.5 t244 141.5 "
         horiz-adv-x="1471"
         unicode="♣"
         glyph-name="club" />
      <glyph
         id="glyph1648"
         d="M781 1459q-189 -234 -330 -439t-247.5 -386.5t-185 -342.5t-141.5 -306t-117 -277.5t-112 -256.5q-43 -92 -83 -162t-74.5 -117.5t-62.5 -72t-46 -24.5q-20 0 -28 27t-1.5 82.5t29 140t64.5 199.5q56 155 133 298t166.5 270.5t188.5 239t200.5 205t200.5 168.5t189 128 q63 38 115 54.5t94 16.5q69 0 110 -40t56 -105t4.5 -147t-45.5 -166q-27 -65 -70.5 -126.5t-98 -109.5t-117.5 -77t-128 -29q-44 0 -88.5 15t-86.5 49t-82 87.5t-75 130.5q2 0 18.5 -24t49 -60.5t82 -79t116 -79t150.5 -60.5t187 -24q77 0 165 16.5t187 55t209 101 t232 154.5 "
         horiz-adv-x="1508"
         unicode="♠"
         glyph-name="spade" />
      <glyph
         id="glyph1650"
         d="M0 386q141 133 254 247.5t200.5 210.5t153 175t111.5 140q110 145 155 241q-75 -116 -119 -227q-19 -47 -33 -98t-17.5 -100.5t6 -95t37.5 -82.5q56 -74 82 -131.5t21.5 -110.5t-40 -109t-101.5 -127q-60 -64 -75.5 -111.5t3.5 -78t67.5 -45.5t117.5 -15q56 0 121.5 9.5 t136.5 28t144 45.5t143 62.5t134.5 78.5t118.5 93 "
         horiz-adv-x="1621"
         unicode="◘"
         glyph-name="invbullet" />
      <glyph
         id="glyph1652"
         d="M0 386q92 82 173 168.5t150.5 172t128 167.5t104.5 155q109 172 187 337q-41 -130 -63 -256q-9 -54 -15.5 -112t-7 -115.5t7 -112t25.5 -100.5q36 -92 35.5 -159.5t-27.5 -122.5t-76 -104.5t-109 -105.5q-39 -37 -52 -69t-1.5 -56t46.5 -37.5t91 -13.5q65 0 141 16.5 t155.5 44.5t159.5 65t154.5 77.5t139.5 82t115 78.5 "
         horiz-adv-x="1462"
         unicode="○"
         glyph-name="circle" />
      <glyph
         id="glyph1654"
         d="M0 386q137 87 258 173t225.5 167.5t192 157t158.5 140.5q165 153 285 290q-57 -105 -121 -232q-54 -109 -121.5 -256t-137.5 -319q-46 -115 -98.5 -200.5t-107.5 -142.5t-112 -85.5t-113 -28.5q-113 0 -210 109q-35 40 -54.5 89t-26.5 100t-3.5 99t14.5 85.5t27 60.5 t34 23q21 0 42 -37.5t36 -125.5q15 -85 38 -151.5t60 -112t91.5 -69.5t132.5 -24q65 0 147 17.5t186 53t231 90t280 129.5 "
         horiz-adv-x="1333"
         unicode="◙"
         glyph-name="invcircle" />
      <glyph
         id="glyph1656"
         d="M0 386q110 61 210 131.5t188.5 144.5t164.5 148.5t139 142.5q147 161 261 325q-66 -107 -132 -230q-28 -52 -59 -113.5t-62.5 -129.5t-62 -141.5t-57.5 -149.5q-35 -97 -77 -174t-87.5 -129.5t-94 -80.5t-96.5 -28q-54 0 -104 36t-94 113q-36 64 -51.5 114t-14.5 84.5 t15 52.5t36 18q30 0 70 -36.5t75 -114.5q26 -58 68.5 -110t100 -91.5t129.5 -62.5t158 -23q68 0 145 16.5t161.5 52.5t177.5 94t193 141 "
         horiz-adv-x="1300"
         unicode="♂"
         glyph-name="male" />
      <glyph
         id="glyph1658"
         d="M0 386q74 7 153.5 26.5t169 59t191 101t219.5 151.5t255 212t297 281q1 -2 -23.5 -29t-65.5 -76.5t-94.5 -119t-110.5 -156t-114 -189t-105 -216.5q-43 -103 -91.5 -176.5t-99.5 -120.5t-103.5 -69t-104.5 -22q-69 0 -134.5 35.5t-122.5 101.5q-93 106 -127 166.5 t-7 60.5q20 0 75.5 -38.5t148.5 -123.5q72 -66 163.5 -93.5t194.5 -27.5q106 0 218 24.5t218 62.5t200.5 84.5t165.5 90.5 "
         horiz-adv-x="1366"
         unicode="♀"
         glyph-name="female" />
      <glyph
         id="glyph1660"
         d="M-119 1524q460 103 834.5 148.5t653.5 45.5q178 0 310.5 -16.5t217.5 -46.5 M1114 2034q-97 -145 -176 -262.5t-146 -215t-123.5 -178.5t-107.5 -153.5t-98.5 -139.5t-96.5 -136.5t-101.5 -144.5t-112.5 -163q-75 -110 -124 -200t-61 -154.5t17 -100t110 -35.5 q49 0 117.5 13.5t159.5 42.5t205 73.5t253 106.5 "
         horiz-adv-x="825"
         unicode="♪"
         glyph-name="musicalnote" />
      <glyph
         id="glyph1662"
         d="M279 1456q123 -21 236.5 -33.5t225.5 -20t226.5 -10t238.5 -2.5q155 0 333.5 2t395.5 2 M1442 1974q-554 -500 -922 -896q-104 -113 -199 -224t-169 -212.5t-121.5 -189.5t-58 -153.5t21.5 -105.5t118 -45q42 -3 83 -3q88 0 173.5 10.5t166.5 27.5t154.5 38.5 t137.5 44.5q150 53 282 120 "
         horiz-adv-x="1109"
         unicode="♫"
         glyph-name="musicalnotedbl" />
      <glyph
         id="glyph1664"
         d="M22 1586q324 84 606 138t524 85.5t447 44t376 12.5q81 0 153.5 -2t138.5 -6 M1579 2051q-253 -241 -448 -431.5t-344 -340.5t-257.5 -264t-188 -202.5t-135.5 -156.5t-99.5 -125t-80.5 -109t-79 -108q-44 -59 -66.5 -110t-19.5 -88.5t34 -59t96 -21.5q58 0 144.5 19 t204.5 61t269.5 109t340.5 162 "
         horiz-adv-x="950"
         unicode="☼"
         glyph-name="sun" />
      <glyph
         id="glyph1666"
         d="M715 1172q-273 -253 -438.5 -429.5t-238 -287.5t-58 -161.5t102.5 -50.5q43 0 101 11t132 31q188 53 347.5 120.5t307.5 153.5t293.5 194t304.5 242q1 0 -24 -21.5t-67.5 -61.5t-98 -97.5t-115.5 -129.5t-120.5 -157t-111.5 -180q-37 -69 -42 -120.5t17 -85.5t68 -51 t111 -17q70 0 158 19.5t188 58.5t208 97.5t218 136.5 "
         horiz-adv-x="1958"
         unicode="►"
         glyph-name="triagrt" />
      <glyph
         id="glyph1668"
         d="M710 1090q-277 -218 -445.5 -382.5t-238.5 -275t-47 -166t129 -55.5q66 0 160 21q89 20 183 60t187.5 91.5t183 111t169.5 118.5q187 139 367 303q-223 -179 -387 -334q-70 -66 -134 -132.5t-108.5 -125.5t-62.5 -106t4 -73q14 -16 35.5 -23t49.5 -7q39 0 88 11.5t102 31 t108 44t107 49.5q120 59 248 135 "
         horiz-adv-x="1408"
         unicode="◄"
         glyph-name="triaglf" />
      <glyph
         id="glyph1670"
         d="M0 386q183 125 337 220.5t273 160t201.5 98t122.5 33.5q52 0 29 -57t-132 -176q-108 -117 -194 -208t-135 -154t-53.5 -95.5t50.5 -32.5q61 0 218 45q98 29 183 71.5t156.5 92.5t130 105t104.5 107q108 124 181 262q-75 -135 -80 -241q-3 -45 9.5 -88.5t48.5 -77.5 t100.5 -55t165.5 -21q35 0 74.5 2.5t84.5 8.5 "
         horiz-adv-x="1875"
         unicode="↕"
         glyph-name="arrowupdn" />
      <glyph
         id="glyph1672"
         d="M901 1378q-269 -238 -453 -426t-295.5 -331t-157 -244t-39.5 -164.5t57.5 -93t135.5 -29.5q21 0 43 2t46 5q105 14 203.5 43t202 82t216.5 134t247 199t294 278t356 371q1 -1 -26.5 -29t-74.5 -76.5t-108.5 -113t-128 -138.5t-134 -153.5t-126.5 -158t-104.5 -151.5 t-69 -134t-19.5 -106t45 -67q62 -34 156 -34q82 0 181 24.5t205 68.5t214.5 104t210.5 131t192 150t160 161q84 99 132 180.5t67 139t11 89.5t-35 32q-26 0 -65.5 -30t-89.5 -95q-47 -62 -62.5 -132.5t-1 -139.5t59.5 -132.5t118.5 -111.5t175 -77t230.5 -29q35 0 71.5 2.5 t75.5 7.5 "
         horiz-adv-x="3017"
         unicode="‼"
         glyph-name="exclamdbl" />
      <glyph
         id="glyph1674"
         d="M634 1083q-249 -239 -422.5 -437t-262 -339.5t-87.5 -220t100 -78.5q31 0 70.5 7.5t90.5 24.5q125 41 244.5 84.5t235 96t228 116.5t223 144.5t219.5 180.5t219 225q-2 1 -26 -26.5t-61.5 -75t-82.5 -111.5t-87.5 -136t-78.5 -148t-55 -147q-12 -43 -8 -74t19.5 -50 t42.5 -28t62 -9q51 0 116.5 17.5t135.5 47t140.5 69.5t132.5 85q68 50 123 113t95.5 128.5t65 128.5t31 112t-6.5 79t-46 30q-2 0 -4.5 -0.5t-4.5 -0.5q-26 -3 -45 -27t-26.5 -60.5t-1.5 -82.5t31 -93.5t70 -93t116 -80.5t169.5 -56.5t229.5 -21.5q42 0 86.5 2.5t92.5 7.5  "
         horiz-adv-x="2717"
         unicode="▬"
         glyph-name="filledrect" />
      <glyph
         id="glyph1676"
         d="M0 386q414 244 661 373t320 129q62 0 -2 -97.5t-258 -301.5q-109 -115 -151 -200t-29 -141t74.5 -83.5t160.5 -27.5q90 0 205.5 22.5t247.5 66.5t276 109t290 151 M2266 1708q-253 -198 -467.5 -364t-398 -309t-339 -268t-291 -241t-254.5 -227.5t-227.5 -228 t-211.5 -242t-207 -270.5 "
         horiz-adv-x="1795"
         unicode="↨"
         glyph-name="arrowupdnbse" />
      <glyph
         id="glyph1678"
         d="M826 970q-254 -149 -439.5 -276.5t-308 -232t-185.5 -185t-71.5 -135.5t34 -83.5t130.5 -28.5q72 0 171 19t224 58q196 62 391.5 145t382.5 180t362 203.5t328.5 214t281.5 213t223 200.5q0 -1 -35.5 -47t-102.5 -130t-163.5 -203t-217.5 -268t-265 -324.5t-306.5 -371.5 t-341 -410t-369.5 -439q-160 -189 -315.5 -346t-300.5 -282.5t-276 -220t-241.5 -157t-197 -94t-141.5 -31.5q-48 0 -70.5 23.5t-16 70.5t45.5 117t114 164q82 102 195 214t249 229.5t291 238.5t321 241t338.5 237t344 227t337 211t318 189t287.5 160.5t244 125.5 "
         horiz-adv-x="2075"
         unicode="↑"
         glyph-name="arrowup" />
      <glyph
         id="glyph1680"
         d="M837 1159q-306 -246 -505.5 -426.5t-292 -299t-76.5 -176.5t141 -58q82 0 218 26q127 24 272 50t314 73.5t366 128.5t428.5 215t501 332.5t583.5 481.5q0 -1 -38.5 -36.5t-108.5 -100t-168 -156t-217 -203.5t-254.5 -243t-281 -274t-297 -296.5t-301.5 -311.5 t-295.5 -317t-278.5 -315q-152 -178 -286.5 -309t-244 -217.5t-191 -128.5t-127.5 -42q-34 0 -47 22.5t-2.5 66.5t46.5 109.5t99 151.5q75 101 183.5 203t243.5 202.5t292.5 199.5t329.5 195t354 187.5t367 177t369 165t359 150.5 "
         horiz-adv-x="2292"
         unicode="↓"
         glyph-name="arrowdown" />
      <glyph
         id="glyph1682"
         d="M0 386q144 84 273 164t240 151.5t203 132t162 104t117 68t68 24.5q30 0 5 -55.5t-112 -182.5q-68 -99 -123.5 -175.5t-100 -134t-79 -98.5t-60.5 -69q-60 -66 -91 -83q131 120 256 215q53 40 110.5 78.5t113 68.5t107.5 48.5t95 18.5q37 0 62 -14q48 -26 81 -89t47 -155 t7.5 -209.5t-38 -254t-89.5 -289t-147 -313.5q-61 -111 -127.5 -195.5t-135.5 -147t-138 -104.5t-134 -67.5t-125.5 -36t-111.5 -10.5q-69 0 -118 15.5t-69 36.5q-22 23 -29 62t11 96t65.5 132t136 170t223 210t325.5 251.5t443 295.5t577 341 "
         horiz-adv-x="1900"
         unicode="→"
         glyph-name="arrowright" />
      <glyph
         id="glyph1684"
         d="M84 -154q233 76 430 146.5t366.5 135.5t315.5 125.5t277 117t250 109t235 101.5t232.5 95.5t242.5 89.5q127 44 223.5 66t160.5 22q96 0 111.5 -50.5t-64.5 -153.5t-263 -260.5t-483 -370.5q2 2 36.5 25t94 61t142 89t180 109t208.5 120.5t228 124.5t237.5 121t237.5 110 q140 60 253.5 93t189.5 33q60 0 92.5 -21.5t33.5 -68t-34 -118t-110 -171.5t-194 -229t-288 -291q5 3 49 42.5t118 103.5t173 147.5t214 174.5t241 184.5t254 178.5q147 97 241.5 144.5t137.5 47.5q62 0 13 -97t-212 -288q-99 -117 -170.5 -211.5t-103 -161.5t-17 -103 t86.5 -36q46 0 116 15t168.5 47t225.5 81t287 116 "
         horiz-adv-x="5250"
         unicode="←"
         glyph-name="arrowleft" />
      <glyph
         id="glyph1686"
         d="M-43 189q26 -31 50.5 -56t50.5 -42t55.5 -26.5t66.5 -9.5q55 0 131 21.5t186 68.5t259.5 121.5t350.5 179.5q185 97 361.5 184.5t340 163t310 137t271 105t224 67t167.5 23.5q92 0 120 -45q26 -43 32 -94t-17.5 -116.5t-80.5 -150t-158.5 -194t-251 -248t-357.5 -312.5 q0 -3 38.5 28t108 87t165 131.5t209.5 161t242 175.5t262.5 175t271 159.5t266.5 129.5q150 63 253 91t168 28q81 0 107 -37.5t11.5 -100t-62.5 -142.5t-117 -165q-56 -69 -114.5 -142.5t-108 -142.5t-84.5 -130.5t-45 -107.5t10.5 -73t82.5 -27q52 0 142 23 q165 43 302.5 95t237.5 97q117 53 211 107 "
         horiz-adv-x="4625"
         unicode="∟"
         glyph-name="orthogonal" />
      <glyph
         id="glyph1688"
         d="M-341 1139q306 90 570 158t482.5 118t388 83t285.5 53t176.5 29t60.5 10 M1107 1970q-234 -312 -427 -570.5t-338 -465t-238.5 -361t-129 -257t-8.5 -153.5t122 -51q21 0 45.5 2.5t53.5 7.5q137 24 299.5 89t341.5 165t370 231.5t383.5 288.5t382 337t366.5 376 q143 159 247 285t168 213.5t88 134.5t9 47q-12 0 -46.5 -28t-92 -87t-138.5 -150t-185 -216q-125 -151 -250.5 -303t-245.5 -298.5t-232 -283t-209 -255.5t-177.5 -216.5t-138 -166t-89 -104.5t-31.5 -32t26.5 33t74 76t112.5 108.5t142 131.5t164 144.5t177 147.5 t180.5 141t176.5 125q112 74 181.5 108t104.5 34q36 0 36.5 -34.5t-28 -97.5t-82.5 -152t-128 -199q-48 -72 -86.5 -145t-63.5 -139.5t-35 -124.5t-2 -101t35 -67.5t77 -24.5q37 0 87.5 15t115 48t144.5 85t176 125 "
         horiz-adv-x="2592"
         unicode="↔"
         glyph-name="arrowboth" />
      <glyph
         id="glyph1690"
         d="M-39 1004q223 42 425.5 68t378 40t319.5 19t249 5q117 0 178 -3q36 -1 63 -3 M991 1435q-343 -297 -571 -520.5t-335.5 -372.5t-91.5 -223.5t161 -74.5q30 0 65 3t77 10q110 17 241 50.5t277 82t303.5 110t321 134.5t329.5 156t329 175t319 190.5t300 202.5 q155 112 279.5 218t217 199.5t151.5 171.5t84.5 134t15.5 87t-56 31q-32 0 -82.5 -16.5t-119.5 -51.5q-33 -17 -100.5 -69t-160.5 -130.5t-207.5 -180t-241 -216t-261.5 -239t-270 -249.5q-474 -440 -1044 -983q177 166 368 319q81 65 173.5 133.5t191 134t199.5 123.5 t200 101q120 53 197.5 77.5t122.5 24.5q51 0 58.5 -31t-18.5 -89t-81 -140t-131 -183q-60 -79 -87.5 -135.5t-26 -92.5t31 -52.5t83.5 -16.5q90 0 241.5 40t356.5 109 "
         horiz-adv-x="2800"
         unicode="▲"
         glyph-name="triagup" />
      <glyph
         id="glyph1692"
         d="M-126 912q355 35 611 45.5t415 10.5q66 0 114 -1t80 -2q38 -2 65 -4 M797 1342q-176 -179 -321.5 -338t-253 -292.5t-173.5 -239.5t-82.5 -180t19.5 -113t132 -39q23 0 50.5 2.5t58.5 7.5q138 22 297.5 73.5t334.5 128.5t361 175.5t376 214t380.5 245.5t373.5 268 q145 109 261.5 214.5t203.5 200t144.5 174t84 137.5t21 90.5t-44.5 32.5q-32 0 -84.5 -22.5t-128.5 -73.5q-72 -47 -169.5 -129.5t-211.5 -188.5t-240 -230t-254.5 -254.5t-254.5 -262t-240 -252.5t-212 -226t-169.5 -182.5t-112.5 -122t-42 -44.5t42 32.5t118.5 86 t176.5 122.5t214.5 142t233 144t232.5 129q127 65 201.5 96t108.5 31q29 0 31.5 -21.5t-15 -63t-52 -102t-81.5 -139.5q-48 -82 -75 -152t-26 -121t33 -80t102 -29q83 0 223.5 46t348.5 149 "
         horiz-adv-x="2717"
         unicode="▼"
         glyph-name="triagdn" />
      <glyph
         id="glyph1694"
         d="M-290 1412q209 37 384.5 63.5t326.5 44.5t282 30.5t251.5 22.5t234.5 19t231.5 20.5t242.5 27.5t267 40 M1345 1931q-341 -357 -597 -631.5t-429 -478.5t-263.5 -343t-102 -225.5t56 -126.5t211.5 -46q53 -2 105.5 -3t106.5 -1q129 0 257 6.5t250.5 21.5t238 39t218 58.5 t190 80.5t155.5 105 "
         horiz-adv-x="2008"
         unicode="≡"
         glyph-name="equivalence" />
      <glyph
         id="glyph1696"
         d="M702 1899q109 48 217 71t213 23q139 0 265 -40t228.5 -117t175.5 -191t104 -261q29 -135 6.5 -265t-87 -249.5t-167 -226.5t-234 -197.5t-286.5 -161t-326 -117.5q-87 -23 -159.5 -34t-134.5 -11q-119 0 -196.5 36.5t-120.5 97t-54.5 139.5t2 165t49 172.5t86.5 162.5 q42 62 99 137t125.5 155t145.5 162t158.5 157.5t165 141.5t165.5 115.5t159.5 77.5t146.5 28q37 0 71 -9 "
         horiz-adv-x="2158"
         unicode="₧"
         glyph-name="peseta" />
      <glyph
         id="glyph1698"
         d="M1339 1777q-324 -350 -552 -638.5t-375 -508.5t-220.5 -369.5t-88.5 -221.5 "
         horiz-adv-x="1250"
         unicode="℅"
         glyph-name="uni2105" />
      <glyph
         id="glyph1700"
         d="M554 1107q115 116 231 199.5t226.5 137.5t213.5 80t193 26q105 0 187 -34.5t131.5 -99t62 -157.5t-21.5 -210q-39 -135 -105 -257t-153 -226.5t-193.5 -188.5t-226 -143.5t-250 -91.5t-266.5 -32q-60 0 -120 6q-148 16 -237.5 60.5t-126.5 103.5t-24 124t70.5 122t156 98 t232.5 52q34 3 68 4t68 1q170 0 341.5 -28.5t349.5 -71.5t366.5 -92.5t392.5 -92.5t427 -71.5t470 -28.5q77 0 156 3t161 10 "
         horiz-adv-x="3075"
         unicode="№"
         glyph-name="uni2116" />
      <glyph
         id="glyph1702"
         d="M824 1905q-87 -154 -176.5 -271t-169 -195.5t-141 -118t-92.5 -39.5q-26 0 -26 26t29.5 62t84.5 76.5t134 82t177.5 79t215.5 67t247 45.5q32 4 60.5 6t55.5 2q101 0 161.5 -25.5t69.5 -69.5t-38 -104t-161 -129t-299.5 -143.5t-453.5 -148.5q1 -1 21.5 4.5t56 14 t83.5 19t104.5 19.5t119 15t127.5 6q69 0 137 -8.5t130.5 -29.5t117 -55.5t94.5 -87.5q63 -81 82.5 -160t2 -152.5t-70 -139.5t-136 -119t-194 -91.5t-244.5 -58.5q-54 -8 -108 -11.5t-108 -3.5q-117 0 -221 15.5t-180.5 40t-118 53.5t-33 56.5t75 49.5t204.5 32 "
         horiz-adv-x="1917"
         unicode="⅔"
         glyph-name="twothirds" />
      <glyph
         id="glyph1704"
         d="M1165 1847q-169 -286 -320.5 -495t-278.5 -345.5t-224.5 -202t-157.5 -65.5q-55 0 -75 53q-10 27 0.5 57.5t40 56t77 42t111.5 16.5q70 0 157.5 -24t193.5 -84q248 -139 576 -139q236 0 503 71.5t559 215.5 M2661 2489q-211 -270 -409.5 -528.5t-379 -497t-341.5 -452.5 t-296 -397q-319 -429 -583 -794 "
         horiz-adv-x="2617"
         unicode="⅛"
         glyph-name="oneeighth" />
      <glyph
         id="glyph1706"
         d="M1223 1770q-36 -39 -29 -70q3 -13 15 -25.5t39 -22.5t71 -16t110 -6q87 0 218.5 12.5t318 43t434 81t568.5 126.5 M1596 1847q-57 -69 -129 -133t-151 -122.5t-161.5 -110.5t-160.5 -96q-182 -103 -376 -188q77 33 161 59q36 11 76.5 21.5t84 18.5t88 13t88.5 5 q62 0 120 -12t105.5 -42t80.5 -79.5t46 -124.5q20 -113 6.5 -221.5t-55 -205t-108 -177.5t-154.5 -139.5t-194 -91.5t-225 -33q-23 0 -46.5 1.5t-47.5 3.5q-132 15 -232 59.5t-169 104t-107 127.5t-46 129t13 107.5t71 64.5 "
         horiz-adv-x="2458"
         unicode="⅜"
         glyph-name="threeeighths" />
      <glyph
         id="glyph1708"
         d="M1313 1918q-230 -264 -421 -483.5t-332 -396.5t-225.5 -311.5t-101.5 -228.5t39.5 -147.5t197.5 -67.5q23 -2 48 -3.5t51 -1.5q109 0 231 19.5t245 54.5t242 82t221.5 101.5t183 114.5t127 120.5t53.5 118.5t-37 109q-36 42 -106 42q-61 0 -139.5 -30t-165 -81.5 t-176 -120t-172 -146.5t-153 -161t-119 -162.5t-70 -151.5t-6 -128t72 -92t165.5 -44 "
         horiz-adv-x="2133"
         unicode="⅝"
         glyph-name="fiveeighths" />
      <glyph
         id="glyph1710"
         d="M528 1699q-148 -233 -245 -342t-130 -109q-24 0 -12 52.5t65 154.5q43 83 89 141t95.5 94.5t103 53t110.5 16.5q53 0 109 -12.5t117 -35.5q72 -26 150.5 -39.5t167.5 -13.5q200 0 448.5 69.5t553.5 209.5q2 0 -55 -51t-155.5 -139t-230.5 -206.5t-280 -254.5t-303.5 -282 t-301.5 -290t-273.5 -278.5t-220 -247t-141 -195.5t-35.5 -123 "
         horiz-adv-x="2075"
         unicode="⅞"
         glyph-name="seveneighths" />
      <glyph
         id="glyph1712"
         d="M1622 1571q108 150 157 271t47 205.5t-51.5 130.5t-140.5 46q-84 0 -198.5 -41t-257.5 -130q-82 -51 -171.5 -115.5t-180 -137.5t-179 -151.5t-168.5 -157t-148.5 -154.5t-119 -144.5t-80 -126t-31.5 -100t26.5 -66t93.5 -23.5q61 0 160 24q143 35 281.5 88.5t269 116.5 t249.5 132t222 136q240 156 452 332q-314 -361 -584 -683q-77 -91 -155 -185t-153 -186t-145 -179.5t-129.5 -165t-107 -143t-78.5 -113.5 "
         horiz-adv-x="1950"
         unicode="⁄"
         glyph-name="fraction" />
      <glyph
         id="glyph1714"
         d="M1622 1571q108 150 157 271t47 205.5t-51.5 130.5t-140.5 46q-84 0 -198.5 -41t-257.5 -130q-82 -51 -171.5 -115.5t-180 -137.5t-179 -151.5t-168.5 -157t-148.5 -154.5t-119 -144.5t-80 -126t-31.5 -100t26.5 -66t93.5 -23.5q61 0 160 24q143 35 281.5 88.5t269 116.5 t249.5 132t222 136q240 156 452 332q-314 -361 -584 -683q-77 -91 -155 -185t-153 -186t-145 -179.5t-129.5 -165t-107 -143t-78.5 -113.5 "
         horiz-adv-x="1950"
         unicode="∕"
         glyph-name="fraction" />
      <glyph
         id="glyph1716"
         d="M-241 367q-16 -64 -30.5 -111.5t-22.5 -78.5t-7.5 -46.5t14.5 -15.5q22 0 86.5 38.5t190.5 112.5q73 43 183 98.5t240.5 113.5t274.5 113.5t286 99t274 70t239 26.5q92 0 159 -23t102 -74 M1622 1144q-12 -39 -60.5 -85t-123.5 -95t-172.5 -98.5t-208.5 -95.5 t-230.5 -85.5t-238.5 -69t-233 -46.5t-214 -17q-78 0 -144.5 11.5t-118.5 36t-86.5 64t-47.5 94.5 "
         horiz-adv-x="8"
         unicode="‴"
         glyph-name="uni2034" />
      <glyph
         id="glyph1718"
         d="M-203 637q85 -59 213 -82.5t285 -23.5q122 0 258 10.5t279.5 26t291.5 32t295 28.5q161 13 318 36t301 54t271 69.5t227.5 83t170 94t98.5 102.5 M3037 647q-125 42 -274.5 60t-316.5 18q-127 0 -259.5 -9.5t-265.5 -26.5t-263 -40t-252 -49.5t-233.5 -56.5t-206.5 -60 q-92 -29 -190.5 -66t-197 -74.5t-193.5 -73t-181 -63.5t-158.5 -45t-126.5 -17q-39 0 -66.5 10t-41.5 32.5t-13 58.5t19 88 "
         horiz-adv-x="8"
         unicode="₢"
         glyph-name="uni20A2" />
      <glyph
         id="glyph1720"
         d="M322 1442q24 -32 38.5 -60t30.5 -49t39 -33t63 -12q38 0 95 11.5t142.5 37.5t203 67.5t276.5 101.5q127 48 290.5 93.5t352.5 87.5t398.5 80t428 70t442 58t440.5 44t422 28t388 10q213 0 386.5 -14.5t294.5 -44.5 M4184 1526q-74 8 -152.5 12t-163.5 4 q-169 0 -358.5 -14.5t-395.5 -39.5t-427 -59t-453.5 -74t-475 -83.5t-490.5 -87.5q-184 -33 -331 -64t-262.5 -58.5t-201.5 -51t-150 -40t-108 -26t-75 -9.5q-26 0 -44 7.5t-32 24t-26 41.5t-25 61 M-154 386q185 -70 396.5 -97t455.5 -27q156 0 325 8.5t353 21t384 28 t416 28.5q258 16 510 45t484 67t434.5 82.5t360.5 91t263.5 94t142.5 90.5 M4699 399q-111 37 -300.5 55t-438.5 18q-198 0 -426.5 -11.5t-475 -33.5t-505 -54.5t-517.5 -75t-512 -94.5t-488 -113q-257 -67 -448.5 -117t-328.5 -83.5t-226 -50t-140 -16.5q-48 0 -68 15 t-21 44t11.5 73t30.5 103 "
         horiz-adv-x="8"
         unicode="₥"
         glyph-name="uni20A5" />
      <glyph
         id="glyph1722"
         d="M498 1433q41 -32 68.5 -57.5t51.5 -43t49.5 -27t62.5 -9.5q41 0 102.5 12t157.5 37t233.5 64t329.5 93q150 42 349.5 84.5t435.5 83.5t502 79t548.5 72t575.5 61.5t582.5 47.5t569.5 31t537 11q235 0 443 -10t384 -31 M60 1064q12 -27 17.5 -50t17 -39t36 -25t76.5 -9 q58 0 158.5 12.5t262.5 39.5t395 70t556 104q333 63 666 112.5t654 87t622.5 64t570 43t497 24t403.5 7.5q120 0 211.5 -3t152.5 -9 M-43 369q278 -41 597 -61t688 -20q385 0 827.5 20.5t951.5 60.5q333 26 618 50t529.5 50t450.5 56.5t380.5 69.5t320 89t267.5 114  M6025 386q-174 50 -409.5 73.5t-535.5 23.5q-276 0 -603.5 -20t-703 -58.5t-798 -95t-889.5 -129.5q-424 -66 -756 -122.5t-581 -97.5t-420.5 -64t-275.5 -23q-72 0 -113.5 12t-56 38t-4 66t43.5 97 "
         horiz-adv-x="8"
         unicode="₠"
         glyph-name="uni20A0" />
      <glyph
         id="glyph1724"
         d="M712 1373q41 -37 73 -63.5t63 -44t64 -26t76 -8.5q42 0 96.5 7.5t128 21.5t170.5 34.5t223 47t285 58t358 68.5q196 36 448.5 75.5t545 78.5t617.5 77t667 72t693 62.5t696 49.5t675 33t631 12q347 0 639.5 -17.5t515.5 -56.5 M6952 1450q-205 0 -441.5 -6t-495 -17 t-534 -26t-557.5 -34t-565 -40.5t-558 -45t-536.5 -48.5t-499 -51t-446.5 -51.5t-379 -49.5q-266 -38 -480.5 -74t-385.5 -63.5t-302.5 -44t-230.5 -16.5q-119 0 -199 28t-136 93 M-51 309q122 -18 322 -33t461.5 -26.5t576 -17.5t665.5 -6q329 0 682 6t717.5 19.5 t732.5 34.5t726 51.5t699.5 70.5t652 90.5t583.5 112.5t494 136 M7733 326q-321 29 -662.5 42t-704.5 13q-392 0 -799.5 -14.5t-821.5 -40.5t-830 -62.5t-825 -81t-806 -95t-773 -104.5q-262 -38 -470.5 -70t-371 -58.5t-283 -46.5t-206.5 -33.5t-140 -20.5t-85 -7 q-40 0 -45.5 12.5t6.5 38.5t32.5 65.5t34.5 93.5 "
         horiz-adv-x="8"
         unicode="₡"
         glyph-name="colonmonetary" />
      <glyph
         id="glyph1726"
         d="M19 322q190 108 327 205t226.5 181t135.5 154.5t54 124.5t-18 91t-81 55q-11 4 -28 4q-38 0 -89 -23t-107.5 -63.5t-115.5 -94.5t-113 -116t-99 -128t-74 -131t-38.5 -124.5t8 -108t65.5 -83t134 -48.5q74 -12 148.5 -17.5t151.5 -5.5q153 0 307 21.5t301.5 59.5 t284.5 91t255 117q86 46 157 93.5t123 91.5t81.5 82t33 66.5t-23 45t-86.5 16.5q-53 0 -137 -15 "
         horiz-adv-x="2263"
         unicode="∑"
         glyph-name="summation" />
      <glyph
         id="glyph1728"
         d="M39 372q234 119 392 229.5t242.5 195.5t95 136t-51.5 51q-16 0 -36 -3t-44 -11q-44 -13 -103 -44t-124 -75t-130.5 -98.5t-123 -114t-102 -121.5t-67 -121.5t-18 -114t45 -98.5t121.5 -75.5t212 -44.5q65 -6 132 -6q130 0 270 21.5t279 58t272 85t250 103.5t212.5 113 t159.5 113.5t91.5 105t7.5 87.5t-92 61t-206 25 "
         horiz-adv-x="2158"
         unicode="≤"
         glyph-name="lessequal" />
      <glyph
         id="glyph1730"
         d="M0 386q167 129 304 222t244.5 153.5t186 89.5t128.5 29q83 0 91.5 -72.5t-51.5 -208.5q-33 -75 -85.5 -142.5t-114.5 -127.5t-131 -111t-135 -93q-155 -98 -331 -173q279 151 548 307q114 66 237.5 140t244 149.5t233 151t205.5 145.5q0 -2 -35 -24t-105.5 -80.5 t-177.5 -161t-252 -265.5q-60 -67 -85 -115t-21.5 -78t33.5 -44t80 -14q71 0 175 25t224.5 69t249 103t248.5 126 "
         horiz-adv-x="1908"
         unicode="℗"
         glyph-name="uni2117" />
      <glyph
         id="glyph1732"
         d="M-69 -120q159 21 354.5 87.5t422 178t481 270t529.5 364t568 459t598 555.5q0 -4 -31 -58.5t-83.5 -143.5t-122 -205.5t-147 -244.5t-157.5 -260.5t-154 -254.5q-49 -81 -104 -159t-113 -147t-118 -127t-119.5 -100t-117 -65.5t-110.5 -23.5q-54 0 -102 27t-87.5 86 t-69 152.5t-46.5 227.5q0 1 5 -29.5t23.5 -77t54.5 -100.5t99 -100.5t157 -77.5t228 -31q87 0 191.5 15.5t230 51.5t272.5 93.5t318 141.5 "
         horiz-adv-x="2783"
         unicode="Ω"
         glyph-name="Omega" />
      <glyph
         id="glyph1734"
         d="M0 386q135 102 247.5 200.5t204 191t163 176.5t125.5 156q128 170 200 319q-62 -134 -115 -278q-22 -61 -44.5 -130.5t-42 -143t-34.5 -149t-22 -149.5q-10 -100 -43 -181t-81 -139t-106 -89.5t-117 -31.5q-56 0 -109 30t-97 96q-28 43 -44.5 72.5t-21.5 48t-0.5 26.5 t17.5 8q18 0 49 -13t72.5 -34t90.5 -48t101 -54q54 -28 146 -43.5t213 -15.5q127 0 278.5 19t315.5 61.5t333.5 109.5t332 163t311.5 223t271 288 "
         horiz-adv-x="2725"
         unicode="℮"
         glyph-name="estimated" />
      <glyph
         id="glyph1736"
         d="M1193 592q37 56 64.5 106.5t33.5 89t-17 61t-86 22.5q-35 0 -84.5 -8t-115.5 -25t-149.5 -43.5t-186.5 -64.5q-182 -66 -320 -133.5t-231 -130t-139.5 -117t-45 -95t51.5 -63.5t151 -23q46 0 101.5 5t122.5 16q127 21 227.5 48t178 57t134 61t96.5 60q94 69 128 143 q-91 -155 -220 -348q-111 -165 -276 -390.5t-388 -497.5q-150 -183 -290.5 -332.5t-259.5 -255t-212.5 -163t-150.5 -57.5q-54 0 -70.5 56t13.5 177q19 77 82 162t158 172.5t216.5 176t259 173.5t284.5 164t293 148t284.5 126t259.5 97q161 54 335.5 121.5t348.5 145.5 t340 164t309.5 177t258 184.5t185.5 185.5 "
         horiz-adv-x="2925"
         unicode="℁"
         glyph-name="uni2101" />
      <glyph
         id="glyph1738"
         d="M1193 592q37 56 64.5 106.5t33.5 89t-17 61t-86 22.5q-35 0 -84.5 -8t-115.5 -25t-149.5 -43.5t-186.5 -64.5q-182 -66 -320 -133.5t-231 -130t-139.5 -117t-45 -95t51.5 -63.5t151 -23q46 0 101.5 5t122.5 16q127 21 227.5 48t178 57t134 61t96.5 60q94 69 128 143 q-91 -155 -220 -348q-111 -165 -276 -390.5t-388 -497.5q-150 -183 -290.5 -332.5t-259.5 -255t-212.5 -163t-150.5 -57.5q-54 0 -70.5 56t13.5 177q19 77 82 162t158 172.5t216.5 176t259 173.5t284.5 164t293 148t284.5 126t259.5 97q161 54 335.5 121.5t348.5 145.5 t340 164t309.5 177t258 184.5t185.5 185.5 "
         horiz-adv-x="2925"
         unicode="⅍"
         glyph-name="uni2101" />
      <glyph
         id="glyph1740"
         d="M506 893q-228 -208 -373 -358.5t-208.5 -248.5t-47 -145t111.5 -47q59 0 147.5 17.5t206.5 51.5q146 42 279.5 103t252.5 132t222.5 148t189.5 151q202 174 361 367q-161 -238 -354 -509q-82 -115 -178.5 -249t-205.5 -280.5t-227.5 -302.5t-244.5 -315 q-181 -230 -336.5 -411.5t-277.5 -308t-206 -193.5t-122 -67q-29 0 -29 42t35 131q24 63 93 159t174.5 214.5t245 254.5t304.5 278.5t352.5 287t390.5 279.5t417 256.5t432.5 218.5t438 164t431.5 94 "
         horiz-adv-x="2933"
         unicode="Ⅎ"
         glyph-name="uni2132" />
      <glyph
         id="glyph1742"
         d="M506 893q-228 -208 -373 -358.5t-208.5 -248.5t-47 -145t111.5 -47q59 0 147.5 17.5t206.5 51.5q146 42 279.5 103t252.5 132t222.5 148t189.5 151q202 174 361 367q-161 -238 -354 -509q-82 -115 -178.5 -249t-205.5 -280.5t-227.5 -302.5t-244.5 -315 q-181 -230 -336.5 -411.5t-277.5 -308t-206 -193.5t-122 -67q-29 0 -29 42t35 131q24 63 93 159t174.5 214.5t245 254.5t304.5 278.5t352.5 287t390.5 279.5t417 256.5t432.5 218.5t438 164t431.5 94 "
         horiz-adv-x="2933"
         unicode="ⅎ"
         glyph-name="uni2132" />
      <glyph
         id="glyph1744"
         d="M-53 1236q246 25 453 47.5t385 42.5t333 38.5t297.5 36.5t278.5 35.5t276 35.5 M1057 1748q-222 -260 -412 -486t-335 -413t-236.5 -333.5t-116 -247.5t25.5 -153.5t188 -52.5q73 0 172 15q205 32 399.5 76.5t364 96t308.5 106.5t233 107.5t137 98.5t21 80 "
         horiz-adv-x="1933"
         unicode="ↄ"
         glyph-name="uni2184" />
      <glyph
         id="glyph1746"
         d="M2875 412q-183 -76 -348 -111.5t-306 -35.5q-163 0 -284.5 45t-187.5 129t-69 203.5t71 267.5q53 106 145 220t205.5 228t241 224.5t252.5 209.5q294 232 632 457q-82 -241 -230 -510q-63 -115 -146 -247t-189 -275t-236.5 -294.5t-288.5 -304.5q-133 -129 -271.5 -223.5 t-277.5 -157t-276 -92.5t-268 -30q-179 0 -340 55t-291.5 160.5t-224 260t-137.5 353.5q3 0 20.5 -34.5t52.5 -90.5t89.5 -128t131 -147t176 -147t225.5 -128t279.5 -90.5t337.5 -34.5q128 0 269 18.5t299 60.5 "
         horiz-adv-x="2842"
         unicode="∩"
         glyph-name="intersection" />
      <glyph
         id="glyph1748"
         d="M2901 429q-183 -104 -363.5 -153t-339.5 -49q-104 0 -193.5 20.5t-157.5 60t-110.5 96.5t-52.5 131t16 164t94 194q103 157 229 326.5t268 340.5t296 336.5t312 314t317.5 272.5t311.5 212q3 0 -22 -54.5t-75.5 -151t-124 -227.5t-166.5 -284t-203.5 -321t-235.5 -338.5 t-263 -336t-284 -313.5q-139 -141 -283.5 -247.5t-288.5 -178t-285.5 -107.5t-274.5 -36q-147 0 -280.5 45t-247 135.5t-202.5 228.5t-146 324q3 3 17.5 -26.5t44 -79t75.5 -114t111 -132t151 -132.5t195 -116t243.5 -82.5t296.5 -31.5q116 0 245.5 18t276.5 60 "
         horiz-adv-x="2842"
         unicode="∨"
         glyph-name="logicalor" />
    </font>
</defs>
</svg>
